<svg width="80" height="81" viewBox="0 0 80 81" fill="none" xmlns="http://www.w3.org/2000/svg">
<path d="M52.0005 74.6675C52.3542 74.6675 52.6934 74.527 52.9434 74.2769C53.1935 74.0268 53.334 73.6877 53.334 73.334C53.334 72.9803 53.1935 72.6411 52.9434 72.3911C52.6934 72.141 52.3542 72.0005 52.0005 72.0005H41.3335C40.9798 72.0005 40.6407 72.141 40.3906 72.3911C40.1405 72.6411 40 72.9803 40 73.334C40 73.6877 40.1405 74.0268 40.3906 74.2769C40.6407 74.527 40.9798 74.6675 41.3335 74.6675H52.0005Z" fill="#FFB352"/>
<path d="M1.3335 74.6675H12.0005C12.3542 74.6675 12.6933 74.527 12.9434 74.2769C13.1935 74.0268 13.334 73.6877 13.334 73.334C13.334 72.9803 13.1935 72.6411 12.9434 72.3911C12.6933 72.141 12.3542 72.0005 12.0005 72.0005H1.3335C0.979834 72.0005 0.640653 72.141 0.390574 72.3911C0.140494 72.6411 0 72.9803 0 73.334C0 73.6877 0.140494 74.0268 0.390574 74.2769C0.640653 74.527 0.979834 74.6675 1.3335 74.6675Z" fill="#FFB352"/>
<path d="M34.6665 77.3335C34.3128 77.3335 33.9737 77.474 33.7236 77.7241C33.4735 77.9741 33.333 78.3133 33.333 78.667C33.333 79.0207 33.4735 79.3598 33.7236 79.6099C33.9737 79.86 34.3128 80.0005 34.6665 80.0005H39.9995C40.3532 80.0005 40.6924 79.86 40.9424 79.6099C41.1925 79.3598 41.333 79.0207 41.333 78.667C41.333 78.3133 41.1925 77.9741 40.9424 77.7241C40.6924 77.474 40.3532 77.3335 39.9995 77.3335H34.6665Z" fill="#FFB352"/>
<path d="M6.66748 78.6665C6.66748 79.02 6.80792 79.3591 7.05791 79.6091C7.30789 79.8591 7.64695 79.9995 8.00048 79.9995H26.6675C27.021 79.9995 27.3601 79.8591 27.6101 79.6091C27.86 79.3591 28.0005 79.02 28.0005 78.6665C28.0005 78.313 27.86 77.9739 27.6101 77.7239C27.3601 77.474 27.021 77.3335 26.6675 77.3335H8.00048C7.64695 77.3335 7.30789 77.474 7.05791 77.7239C6.80792 77.9739 6.66748 78.313 6.66748 78.6665Z" fill="#FFB352"/>
<path d="M76.1385 31.0335C73.5884 29.8604 70.806 29.2793 67.9995 29.3335C67.0903 29.333 66.182 29.3882 65.2795 29.4985L72.9425 21.8345C73.1924 21.5845 73.3328 21.2455 73.3328 20.892C73.3328 20.5385 73.1924 20.1995 72.9425 19.9495C71.5595 18.5665 69.3425 18.2895 66.7025 19.1695C64.0695 20.1426 61.6905 21.6984 59.7435 23.7205C59.3675 24.0972 59.0085 24.4825 58.6665 24.8765V14.6665C58.6665 14.4914 58.632 14.3181 58.565 14.1564C58.498 13.9947 58.3998 13.8477 58.2761 13.7239C58.1523 13.6001 58.0053 13.502 57.8436 13.435C57.6819 13.368 57.5085 13.3335 57.3335 13.3335C55.3775 13.3335 53.6145 14.7045 52.3695 17.1945C51.1964 19.7446 50.6152 22.527 50.6695 25.3335C50.6647 26.8296 50.8165 28.322 51.1225 29.7865C49.657 29.4809 48.1635 29.3291 46.6665 29.3335C43.86 29.2793 41.0776 29.8604 38.5275 31.0335C36.0375 32.2785 34.6665 34.0415 34.6665 35.9975C34.6661 36.1729 34.7003 36.3466 34.7672 36.5088C34.8341 36.6709 34.9323 36.8182 35.0562 36.9424C35.1801 37.0665 35.3273 37.1649 35.4894 37.232C35.6514 37.2991 35.8251 37.3336 36.0005 37.3335H45.2565C42.4135 41.3885 41.8145 45.4745 43.9505 47.6095C44.2005 47.8594 44.5395 47.9998 44.893 47.9998C45.2465 47.9998 45.5855 47.8594 45.8355 47.6095L52.6295 40.8155C52.9406 41.3051 53.3547 41.7209 53.8429 42.0342C54.3311 42.3475 54.8817 42.5507 55.4563 42.6296C56.031 42.7085 56.616 42.6612 57.1705 42.4911C57.7251 42.321 58.2359 42.0321 58.6675 41.6445C58.7275 41.6985 58.7895 41.7495 58.8525 41.7995C60.4614 45.9208 61.3382 50.2915 61.4435 54.7145C58.1162 54.9844 54.9406 56.2223 52.3085 58.2755C52.1415 58.4035 51.9775 58.5345 51.8145 58.6685C44.3245 58.7185 37.5815 61.7555 33.9755 66.6685H1.3335V69.3335H57.3335C62.6755 69.3335 66.6665 71.4455 66.6665 73.3335C66.6665 75.2215 62.6755 77.3335 57.3335 77.3335C56.9798 77.3335 56.6407 77.474 56.3906 77.7241C56.1405 77.9742 56 78.3133 56 78.667C56 79.0207 56.1405 79.3598 56.3906 79.6099C56.6407 79.86 56.9798 80.0005 57.3335 80.0005C60.14 80.0548 62.9224 79.4736 65.4725 78.3005C67.9625 77.0525 69.3335 75.2895 69.3335 73.3335C69.2958 72.5328 69.0683 71.7526 68.6698 71.0571C68.2713 70.3617 67.7132 69.7709 67.0415 69.3335H78.6665C78.8852 69.3337 79.1006 69.28 79.2937 69.1772C79.4868 69.0744 79.6516 68.9257 79.7737 68.7442C79.8957 68.5627 79.9712 68.3539 79.9935 68.1363C80.0158 67.9187 79.9842 67.699 79.9015 67.4965C78.4686 63.8676 76.0957 60.6853 73.0265 58.2765C71.83 57.3578 70.5227 56.5931 69.1355 56.0005H69.3335C69.3874 49.5731 68.0662 43.2084 65.4585 37.3335H78.6665C79.02 37.3335 79.3591 37.1931 79.6091 36.9431C79.8591 36.6931 79.9995 36.354 79.9995 36.0005C80.0005 34.0445 78.6335 32.2815 76.1385 31.0335ZM56.0005 16.6235V28.7885C55.6087 29.549 55.29 30.3448 55.0485 31.1655C54.9675 31.1225 54.8885 31.0785 54.8055 31.0375C54.5865 30.9285 54.3595 30.8255 54.1265 30.7255C53.5873 28.9794 53.3198 27.1609 53.3335 25.3335C53.3335 21.2425 54.5725 17.9435 56.0005 16.6235ZM52.1745 37.4995L45.3285 44.3455C45.2515 42.6585 46.3285 39.9955 48.6425 37.3335H52.2335C52.2105 37.3885 52.1915 37.4435 52.1745 37.4995ZM37.9565 34.6675C39.2775 33.2395 42.5765 32.0005 46.6665 32.0005C50.7565 32.0005 54.0565 33.2385 55.3765 34.6675H37.9565ZM56.0005 40.0005C55.7369 40.0005 55.4792 39.9223 55.26 39.7759C55.0408 39.6295 54.87 39.4214 54.7691 39.1778C54.6681 38.9343 54.6417 38.6664 54.693 38.4078C54.7444 38.1493 54.8712 37.9117 55.0576 37.7253C55.2439 37.5388 55.4813 37.4118 55.7398 37.3602C55.9983 37.3087 56.2663 37.3349 56.5099 37.4357C56.7535 37.5364 56.9618 37.7071 57.1084 37.9262C57.255 38.1453 57.3333 38.4029 57.3335 38.6665C57.3336 38.8416 57.2992 39.0151 57.2323 39.1769C57.1654 39.3388 57.0672 39.4858 56.9434 39.6097C56.8196 39.7336 56.6726 39.8319 56.5108 39.8989C56.349 39.966 56.1756 40.0005 56.0005 40.0005ZM57.4175 32.7725C57.7315 30.6475 59.3245 27.9115 61.6295 25.6065C64.5225 22.7135 67.7295 21.2555 69.6745 21.3325L60.0745 30.9325C60.0045 30.9655 59.9345 30.9975 59.8655 31.0325C58.9561 31.4689 58.1279 32.0574 57.4165 32.7725H57.4175ZM61.3335 40.0005C61.0699 40.0005 60.8121 39.9223 60.5929 39.7758C60.3737 39.6294 60.2029 39.4212 60.102 39.1776C60.0011 38.934 59.9747 38.666 60.0261 38.4074C60.0775 38.1489 60.2045 37.9113 60.3909 37.7249C60.5773 37.5385 60.8149 37.4115 61.0734 37.3601C61.332 37.3087 61.6 37.3351 61.8436 37.436C62.0872 37.5369 62.2954 37.7077 62.4418 37.9269C62.5883 38.1461 62.6665 38.4039 62.6665 38.6675C62.6665 39.021 62.5261 39.3601 62.2761 39.6101C62.0261 39.8601 61.687 40.0005 61.3335 40.0005ZM45.7905 66.6665H37.4985C40.6694 63.7661 44.6896 61.9632 48.9645 61.5245C47.6849 63.0914 46.6176 64.8203 45.7905 66.6665ZM71.4055 60.3935C73.5687 62.0812 75.3358 64.2224 76.5825 66.6665H48.7515C49.9982 64.2224 51.7653 62.0812 53.9285 60.3935C56.4103 58.412 59.4917 57.3327 62.6675 57.3327C65.8433 57.3327 68.9247 58.412 71.4065 60.3935H71.4055ZM66.6555 55.1625C65.8202 54.952 64.9695 54.8079 64.1115 54.7315C64.0116 50.6085 63.2981 46.5233 61.9945 42.6105C62.8511 42.466 63.6374 42.0465 64.2345 41.4155C65.7793 45.8368 66.5966 50.4794 66.6545 55.1625H66.6555ZM59.2895 34.6625C60.6105 33.2345 63.9095 31.9955 67.9995 31.9955C72.0895 31.9955 75.3895 33.2335 76.7105 34.6625H59.2895Z" fill="#FFB352"/>
<path d="M33.3345 72.0005H20.0005C19.6468 72.0005 19.3077 72.141 19.0576 72.3911C18.8075 72.6411 18.667 72.9803 18.667 73.334C18.667 73.6877 18.8075 74.0268 19.0576 74.2769C19.3077 74.527 19.6468 74.6675 20.0005 74.6675H33.3335C33.6872 74.6675 34.0263 74.527 34.2764 74.2769C34.5265 74.0268 34.667 73.6877 34.667 73.334C34.667 72.9803 34.5265 72.6411 34.2764 72.3911C34.0263 72.141 33.6872 72.0005 33.3335 72.0005H33.3345Z" fill="#FFB352"/>
<path d="M21.3345 8.00049C20.0159 8.00049 18.7269 8.3915 17.6305 9.12408C16.5341 9.85666 15.6796 10.8979 15.175 12.1161C14.6704 13.3344 14.5383 14.6749 14.7956 15.9682C15.0528 17.2614 15.6878 18.4494 16.6202 19.3818C17.5526 20.3142 18.7405 20.9491 20.0338 21.2064C21.3271 21.4636 22.6676 21.3316 23.8858 20.827C25.1041 20.3224 26.1453 19.4679 26.8779 18.3715C27.6105 17.2751 28.0015 15.9861 28.0015 14.6675C28.0015 12.8993 27.2991 11.2035 26.0488 9.95321C24.7985 8.7029 23.1027 8.00049 21.3345 8.00049ZM21.3345 18.6675C20.5434 18.6675 19.77 18.4329 19.1122 17.9934C18.4544 17.5538 17.9417 16.9291 17.639 16.1982C17.3362 15.4673 17.257 14.6631 17.4113 13.8871C17.5657 13.1112 17.9466 12.3985 18.5061 11.8391C19.0655 11.2796 19.7782 10.8987 20.5541 10.7443C21.3301 10.59 22.1343 10.6692 22.8652 10.972C23.5961 11.2747 24.2208 11.7874 24.6604 12.4452C25.0999 13.103 25.3345 13.8764 25.3345 14.6675C25.3345 15.7284 24.9131 16.7458 24.1629 17.4959C23.4128 18.2461 22.3953 18.6675 21.3345 18.6675Z" fill="#FFB352"/>
<path d="M22.6675 4.0005V1.3335C22.6675 0.979834 22.527 0.640653 22.2769 0.390574C22.0268 0.140494 21.6877 0 21.334 0C20.9803 0 20.6411 0.140494 20.3911 0.390574C20.141 0.640653 20.0005 0.979834 20.0005 1.3335V4.0005C20.0005 4.35417 20.141 4.69335 20.3911 4.94343C20.6411 5.19351 20.9803 5.334 21.334 5.334C21.6877 5.334 22.0268 5.19351 22.2769 4.94343C22.527 4.69335 22.6675 4.35417 22.6675 4.0005Z" fill="#FFB352"/>
<path d="M36.0005 14.6665C36.0005 14.313 35.86 13.9739 35.6101 13.7239C35.3601 13.4739 35.021 13.3335 34.6675 13.3335H32.0005C31.6468 13.3335 31.3077 13.474 31.0576 13.7241C30.8075 13.9741 30.667 14.3133 30.667 14.667C30.667 15.0207 30.8075 15.3598 31.0576 15.6099C31.3077 15.86 31.6468 16.0005 32.0005 16.0005H34.6675C34.8426 16.0005 35.016 15.966 35.1778 15.8989C35.3396 15.8319 35.4866 15.7336 35.6104 15.6097C35.7342 15.4858 35.8324 15.3388 35.8993 15.1769C35.9662 15.0151 36.0006 14.8416 36.0005 14.6665Z" fill="#FFB352"/>
<path d="M22.6675 28.0005V25.3335C22.6675 24.9798 22.527 24.6407 22.2769 24.3906C22.0268 24.1405 21.6877 24 21.334 24C20.9803 24 20.6411 24.1405 20.3911 24.3906C20.141 24.6407 20.0005 24.9798 20.0005 25.3335V28.0005C20.0005 28.3542 20.141 28.6934 20.3911 28.9434C20.6411 29.1935 20.9803 29.334 21.334 29.334C21.6877 29.334 22.0268 29.1935 22.2769 28.9434C22.527 28.6934 22.6675 28.3542 22.6675 28.0005Z" fill="#FFB352"/>
<path d="M6.66748 14.6665C6.66748 15.02 6.80792 15.3591 7.05791 15.6091C7.30789 15.8591 7.64695 15.9995 8.00048 15.9995H10.6675C11.021 15.9995 11.3601 15.8591 11.6101 15.6091C11.86 15.3591 12.0005 15.02 12.0005 14.6665C12.0005 14.313 11.86 13.9739 11.6101 13.7239C11.3601 13.4739 11.021 13.3335 10.6675 13.3335H8.00048C7.64695 13.3335 7.30789 13.4739 7.05791 13.7239C6.80792 13.9739 6.66748 14.313 6.66748 14.6665Z" fill="#FFB352"/>
<path d="M14.7334 6.18253L12.8484 4.29753C12.7245 4.17369 12.5775 4.07546 12.4157 4.00844C12.2539 3.94142 12.0805 3.90692 11.9054 3.90692C11.5517 3.90692 11.2125 4.04743 10.9624 4.29753C10.7123 4.54763 10.5718 4.88683 10.5718 5.24052C10.5718 5.59422 10.7123 5.93343 10.9624 6.18353L12.8484 8.06853C12.9716 8.19484 13.1186 8.29544 13.281 8.36449C13.4434 8.43353 13.6179 8.46966 13.7943 8.47076C13.9708 8.47186 14.1457 8.43792 14.3089 8.3709C14.4721 8.30388 14.6204 8.20513 14.7452 8.08036C14.87 7.95559 14.9687 7.80729 15.0358 7.64406C15.1028 7.48083 15.1367 7.30592 15.1356 7.12947C15.1345 6.95302 15.0984 6.77855 15.0293 6.61617C14.9603 6.45378 14.8597 6.30673 14.7334 6.18353V6.18253Z" fill="#FFB352"/>
<path d="M29.8195 8.06647L31.7045 6.18047C31.9546 5.93037 32.0951 5.59117 32.0951 5.23747C32.0951 4.88378 31.9546 4.54457 31.7045 4.29447C31.5807 4.17064 31.4336 4.0724 31.2718 4.00538C31.11 3.93836 30.9366 3.90387 30.7615 3.90387C30.4078 3.90387 30.0686 4.04437 29.8185 4.29447L27.9335 6.18047C27.8072 6.30368 27.7066 6.45073 27.6375 6.61311C27.5685 6.77549 27.5324 6.94997 27.5313 7.12642C27.5302 7.30286 27.5641 7.47777 27.6311 7.641C27.6981 7.80423 27.7969 7.95253 27.9217 8.0773C28.0464 8.20207 28.1947 8.30083 28.358 8.36785C28.5212 8.43486 28.6961 8.46881 28.8726 8.4677C29.049 8.4666 29.2235 8.43048 29.3859 8.36143C29.5482 8.29239 29.6953 8.19179 29.8185 8.06547L29.8195 8.06647Z" fill="#FFB352"/>
<path d="M29.8195 25.0385C30.0696 25.2886 30.4088 25.4291 30.7625 25.4291C31.1162 25.4291 31.4554 25.2886 31.7055 25.0385C31.9556 24.7884 32.0961 24.4492 32.0961 24.0955C32.0961 23.7418 31.9556 23.4026 31.7055 23.1525L29.8195 21.2675C29.6963 21.1412 29.5492 21.0406 29.3869 20.9715C29.2245 20.9025 29.05 20.8664 28.8735 20.8653C28.6971 20.8642 28.5222 20.8981 28.359 20.9651C28.1957 21.0321 28.0474 21.1309 27.9226 21.2557C27.7979 21.3804 27.6991 21.5287 27.6321 21.692C27.5651 21.8552 27.5312 22.0301 27.5323 22.2066C27.5334 22.383 27.5695 22.5575 27.6385 22.7199C27.7076 22.8822 27.8082 23.0293 27.9345 23.1525L29.8195 25.0385Z" fill="#FFB352"/>
<path d="M10.9624 23.1525C10.8385 23.2763 10.7403 23.4233 10.6733 23.5851C10.6063 23.7469 10.5718 23.9204 10.5718 24.0955C10.5718 24.2706 10.6063 24.444 10.6733 24.6058C10.7403 24.7676 10.8385 24.9147 10.9624 25.0385C11.0862 25.1623 11.2332 25.2606 11.395 25.3276C11.5568 25.3946 11.7302 25.4291 11.9054 25.4291C12.0805 25.4291 12.2539 25.3946 12.4157 25.3276C12.5775 25.2606 12.7245 25.1623 12.8484 25.0385L14.7334 23.1525C14.8597 23.0293 14.9603 22.8822 15.0293 22.7199C15.0984 22.5575 15.1345 22.383 15.1356 22.2066C15.1367 22.0301 15.1028 21.8552 15.0358 21.692C14.9687 21.5287 14.87 21.3804 14.7452 21.2557C14.6204 21.1309 14.4721 21.0321 14.3089 20.9651C14.1457 20.8981 13.9708 20.8642 13.7943 20.8653C13.6179 20.8664 13.4434 20.9025 13.281 20.9715C13.1186 21.0406 12.9716 21.1412 12.8484 21.2675L10.9624 23.1525Z" fill="#FFB352"/>
<path d="M17.3335 42.6675C17.687 42.668 18.0259 42.8088 18.2758 43.0589C18.5257 43.3089 18.6662 43.6479 18.6665 44.0015C18.6665 44.3551 18.807 44.6943 19.0571 44.9444C19.3071 45.1945 19.6463 45.335 20 45.335C20.3537 45.335 20.6928 45.1945 20.9429 44.9444C21.193 44.6943 21.3335 44.3551 21.3335 44.0015C21.3335 43.6478 21.474 43.3086 21.7241 43.0585C21.9741 42.8085 22.3133 42.668 22.667 42.668C23.0207 42.668 23.3598 42.8085 23.6099 43.0585C23.86 43.3086 24.0005 43.6478 24.0005 44.0015C24.0005 44.3551 24.141 44.6943 24.3911 44.9444C24.6411 45.1945 24.9803 45.335 25.334 45.335C25.6877 45.335 26.0268 45.1945 26.2769 44.9444C26.527 44.6943 26.6675 44.3551 26.6675 44.0015C26.6671 43.2295 26.4433 42.474 26.0231 41.8264C25.6028 41.1788 25.0042 40.6666 24.2993 40.3516C23.5945 40.0367 22.8135 39.9324 22.0507 40.0514C21.2879 40.1705 20.5759 40.5077 20.0005 41.0225C19.4251 40.5077 18.7131 40.1705 17.9503 40.0514C17.1875 39.9324 16.4065 40.0367 15.7017 40.3516C14.9968 40.6666 14.3982 41.1788 13.9779 41.8264C13.5577 42.474 13.3339 43.2295 13.3335 44.0015C13.3335 44.3551 13.474 44.6943 13.7241 44.9444C13.9741 45.1945 14.3133 45.335 14.667 45.335C15.0207 45.335 15.3598 45.1945 15.6099 44.9444C15.86 44.6943 16.0005 44.3551 16.0005 44.0015C16.0008 43.6479 16.1413 43.3089 16.3912 43.0589C16.6411 42.8088 16.98 42.668 17.3335 42.6675Z" fill="#FFB352"/>
<path d="M2.66748 52.0015C2.66748 52.3551 2.80797 52.6943 3.05805 52.9444C3.30813 53.1945 3.64731 53.335 4.00098 53.335C4.35465 53.335 4.69383 53.1945 4.94391 52.9444C5.19399 52.6943 5.33448 52.3551 5.33448 52.0015C5.33448 51.6478 5.47497 51.3086 5.72505 51.0585C5.97513 50.8085 6.31431 50.668 6.66798 50.668C7.02165 50.668 7.36083 50.8085 7.61091 51.0585C7.86099 51.3086 8.00148 51.6478 8.00148 52.0015C8.00148 52.1765 8.03596 52.3499 8.10295 52.5116C8.16994 52.6733 8.26813 52.8203 8.39191 52.944C8.51569 53.0678 8.66264 53.166 8.82436 53.233C8.98609 53.3 9.15943 53.3345 9.33448 53.3345C9.50953 53.3345 9.68287 53.3 9.8446 53.233C10.0063 53.166 10.1533 53.0678 10.2771 52.944C10.4008 52.8203 10.499 52.6733 10.566 52.5116C10.633 52.3499 10.6675 52.1765 10.6675 52.0015C10.6675 51.6478 10.808 51.3086 11.0581 51.0585C11.3081 50.8085 11.6473 50.668 12.001 50.668C12.3546 50.668 12.6938 50.8085 12.9439 51.0585C13.194 51.3086 13.3345 51.6478 13.3345 52.0015C13.3345 52.3551 13.475 52.6943 13.7251 52.9444C13.9751 53.1945 14.3143 53.335 14.668 53.335C15.0216 53.335 15.3608 53.1945 15.6109 52.9444C15.861 52.6943 16.0015 52.3551 16.0015 52.0015C16.0011 51.2295 15.7773 50.474 15.357 49.8264C14.9368 49.1788 14.3382 48.6666 13.6333 48.3516C12.9284 48.0367 12.1475 47.9324 11.3847 48.0514C10.6219 48.1705 9.90986 48.5077 9.33448 49.0225C8.7591 48.5077 8.04706 48.1705 7.28426 48.0514C6.52147 47.9324 5.74052 48.0367 5.03566 48.3516C4.3308 48.6666 3.73214 49.1788 3.31192 49.8264C2.89171 50.474 2.66789 51.2295 2.66748 52.0015Z" fill="#FFB352"/>
</svg>
