<svg width="80" height="74" viewBox="0 0 80 74" fill="none" xmlns="http://www.w3.org/2000/svg">
<path d="M75.835 65.031H73.775C73.0685 63.4438 72.7034 61.7259 72.7034 59.9885C72.7034 58.2512 73.0685 56.5332 73.775 54.946H75.836C76.9296 54.9291 77.9726 54.4827 78.74 53.7034C79.5074 52.9241 79.9375 51.8742 79.9375 50.7805C79.9375 49.6868 79.5074 48.6369 78.74 47.8576C77.9726 47.0783 76.9296 46.632 75.836 46.615H67.547C68.6417 45.3714 69.246 43.7717 69.247 42.115V29.059C69.2449 27.2437 68.5228 25.5034 67.2392 24.2198C65.9556 22.9362 64.2153 22.2141 62.4 22.212H59.03C59.3531 21.566 59.5058 20.8482 59.4735 20.1267C59.4413 19.4051 59.2251 18.7038 58.8456 18.0892C58.4661 17.4747 57.9359 16.9674 57.3052 16.6154C56.6745 16.2634 55.9643 16.0784 55.242 16.078H54.078C53.5657 14.8766 53.3016 13.5841 53.3016 12.278C53.3016 10.972 53.5657 9.67939 54.078 8.47801H55.239C56.3633 8.47801 57.4415 8.0314 58.2364 7.23643C59.0314 6.44147 59.478 5.36326 59.478 4.23901C59.478 3.11475 59.0314 2.03655 58.2364 1.24158C57.4415 0.446613 56.3633 6.7443e-06 55.239 6.7443e-06H15.706C13.2775 -0.00253919 10.9029 0.715778 8.88306 2.06396C6.86318 3.41214 5.28891 5.32951 4.35968 7.57317C3.43045 9.81683 3.18808 12.2858 3.66328 14.6674C4.13847 17.0489 5.30984 19.2358 7.029 20.951C7.48598 21.4085 7.97779 21.8297 8.5 22.211H7.594C6.50042 22.228 5.45736 22.6743 4.69 23.4536C3.92265 24.2329 3.49254 25.2828 3.49254 26.3765C3.49254 27.4702 3.92265 28.5201 4.69 29.2994C5.45736 30.0787 6.50042 30.5251 7.594 30.542H9.655C10.3615 32.1292 10.7266 33.8472 10.7266 35.5845C10.7266 37.3218 10.3615 39.0398 9.655 40.627H7.594C6.83405 40.6266 6.08848 40.8341 5.4381 41.2272C4.78772 41.6203 4.25735 42.184 3.90449 42.857C3.55163 43.5301 3.38974 44.2869 3.43637 45.0454C3.48299 45.8039 3.73636 46.5352 4.169 47.16C2.93319 47.6869 1.87932 48.5651 1.13818 49.6856C0.39704 50.8061 0.00127323 52.1196 0 53.463L0 66.515C0.00132226 68.3299 0.722544 70.0702 2.00543 71.354C3.28831 72.6379 5.02807 73.3604 6.843 73.363H75.834C76.9276 73.3461 77.9706 72.8997 78.738 72.1204C79.5054 71.3411 79.9355 70.2912 79.9355 69.1975C79.9355 68.1038 79.5054 67.0539 78.738 66.2746C77.9706 65.4953 76.9276 65.049 75.834 65.032L75.835 65.031ZM75.835 48.959C76.3182 48.959 76.7817 49.151 77.1234 49.4927C77.465 49.8344 77.657 50.2978 77.657 50.781C77.657 51.2642 77.465 51.7277 77.1234 52.0694C76.7817 52.411 76.3182 52.603 75.835 52.603H54.685C54.3742 52.603 54.0761 52.7265 53.8563 52.9463C53.6365 53.1661 53.513 53.4642 53.513 53.775C53.513 54.0858 53.6365 54.3839 53.8563 54.6037C54.0761 54.8235 54.3742 54.947 54.685 54.947H71.26C70.8111 56.1947 70.5273 57.4957 70.416 58.817C70.1938 60.9262 70.4841 63.0579 71.262 65.031H8.67C8.58049 65.0297 8.49502 64.9936 8.43172 64.9303C8.36842 64.867 8.33229 64.7815 8.331 64.692V55.286C8.33332 55.1972 8.3699 55.1127 8.43309 55.0503C8.49628 54.9878 8.58117 54.9523 8.67 54.951H20.28V58.8C20.2123 59.1461 20.2567 59.5048 20.4066 59.8239C20.5566 60.1431 20.8044 60.4062 21.114 60.575C21.4472 60.7178 21.8176 60.7489 22.1699 60.6639C22.5223 60.5788 22.8377 60.3821 23.069 60.103L23.087 60.086L26.363 56.962L29.639 60.086L29.657 60.103C30.0108 60.4697 30.4911 60.6875 31 60.712C31.2139 60.7121 31.425 60.6632 31.617 60.569C31.9261 60.3997 32.1732 60.1362 32.3221 59.8167C32.471 59.4973 32.5141 59.1386 32.445 58.793V54.947H48.915C49.2258 54.947 49.5239 54.8235 49.7437 54.6037C49.9635 54.3839 50.087 54.0858 50.087 53.775C50.087 53.4642 49.9635 53.1661 49.7437 52.9463C49.5239 52.7265 49.2258 52.603 48.915 52.603H32.448V48.959H75.835ZM13.013 34.414C12.8998 33.0925 12.6144 31.7915 12.164 30.544H60.573C60.6625 30.5453 60.748 30.5814 60.8113 30.6447C60.8746 30.708 60.9107 30.7935 60.912 30.883V40.289C60.9107 40.3785 60.8746 40.464 60.8113 40.5273C60.748 40.5906 60.6625 40.6267 60.573 40.628H32.453V36.758H40.653C40.9638 36.758 41.2619 36.6345 41.4817 36.4147C41.7015 36.1949 41.825 35.8968 41.825 35.586C41.825 35.2752 41.7015 34.9771 41.4817 34.7573C41.2619 34.5375 40.9638 34.414 40.653 34.414H13.013ZM20.277 40.628H12.161C12.6106 39.3802 12.8963 38.0794 13.011 36.758H20.276L20.277 40.628ZM30.111 36.758L30.1 57.285L27.169 54.485C26.951 54.277 26.6613 54.161 26.36 54.161C26.0587 54.161 25.769 54.277 25.551 54.485L22.621 57.285V36.758H30.112H30.111ZM5.772 12.277C5.77544 9.64377 6.82329 7.11943 8.68565 5.25782C10.548 3.39622 13.0728 2.34939 15.706 2.34701H55.238C55.7168 2.38181 56.1647 2.59657 56.4916 2.94812C56.8185 3.29967 57.0003 3.76194 57.0003 4.24201C57.0003 4.72207 56.8185 5.18434 56.4916 5.53589C56.1647 5.88744 55.7168 6.1022 55.238 6.13701H33.638C33.3272 6.13701 33.0291 6.26048 32.8093 6.48028C32.5895 6.70007 32.466 6.99817 32.466 7.30901C32.466 7.61984 32.5895 7.91794 32.8093 8.13773C33.0291 8.35753 33.3272 8.48101 33.638 8.48101H51.58C50.7509 10.9465 50.7509 13.6155 51.58 16.081H15.706C14.6982 16.081 13.7316 15.6807 13.019 14.968C12.3064 14.2554 11.906 13.2888 11.906 12.281C11.906 11.2732 12.3064 10.3066 13.019 9.594C13.7316 8.88136 14.6982 8.48101 15.706 8.48101H27.865C28.1758 8.48101 28.4739 8.35753 28.6937 8.13773C28.9135 7.91794 29.037 7.61984 29.037 7.30901C29.037 6.99817 28.9135 6.70007 28.6937 6.48028C28.4739 6.26048 28.1758 6.13701 27.865 6.13701H15.706C14.077 6.13701 12.5148 6.78411 11.363 7.93596C10.2111 9.0878 9.564 10.65 9.564 12.279C9.564 13.908 10.2111 15.4702 11.363 16.6221C12.5148 17.7739 14.077 18.421 15.706 18.421H55.238C55.7168 18.4558 56.1647 18.6706 56.4916 19.0221C56.8185 19.3737 57.0003 19.8359 57.0003 20.316C57.0003 20.7961 56.8185 21.2583 56.4916 21.6099C56.1647 21.9614 55.7168 22.1762 55.238 22.211H15.706C13.0728 22.2062 10.5488 21.1581 8.68686 19.2962C6.8249 17.4342 5.77676 14.9102 5.772 12.277ZM7.594 28.199C7.11078 28.199 6.64734 28.007 6.30565 27.6654C5.96396 27.3237 5.772 26.8602 5.772 26.377C5.772 25.8938 5.96396 25.4303 6.30565 25.0887C6.64734 24.747 7.11078 24.555 7.594 24.555H62.4C63.5927 24.5574 64.736 25.0323 65.5794 25.8757C66.4228 26.7191 66.8976 27.8623 66.9 29.055V42.111C66.8976 43.3038 66.4228 44.447 65.5794 45.2904C64.736 46.1338 63.5927 46.6086 62.4 46.611H32.451V42.967H60.573C61.2843 42.9662 61.9663 42.6833 62.4693 42.1803C62.9723 41.6773 63.2552 40.9953 63.256 40.284V30.882C63.2552 30.1707 62.9723 29.4887 62.4693 28.9857C61.9663 28.4827 61.2843 28.1998 60.573 28.199H7.594ZM7.594 42.971H20.277V46.615H7.594C7.11078 46.615 6.64734 46.423 6.30565 46.0814C5.96396 45.7397 5.772 45.2762 5.772 44.793C5.772 44.3098 5.96396 43.8464 6.30565 43.5047C6.64734 43.163 7.11078 42.971 7.594 42.971ZM75.835 71.019H6.843C5.65009 71.0172 4.50658 70.5425 3.66306 69.6989C2.81955 68.8554 2.34485 67.7119 2.343 66.519V53.463C2.34485 52.2701 2.81955 51.1266 3.66306 50.2831C4.50658 49.4396 5.65009 48.9649 6.843 48.963H20.278V52.607H8.67C7.95867 52.6078 7.2767 52.8907 6.77371 53.3937C6.27072 53.8967 5.98779 54.5787 5.987 55.29V64.696C5.98885 65.4066 6.27225 66.0876 6.77512 66.5897C7.27799 67.0918 7.95936 67.3742 8.67 67.375H75.835C76.3182 67.375 76.7817 67.567 77.1234 67.9087C77.465 68.2504 77.657 68.7138 77.657 69.197C77.657 69.6802 77.465 70.1437 77.1234 70.4854C76.7817 70.827 76.3182 71.019 75.835 71.019Z" fill="#FFB352"/>
</svg>
