<svg width="80" height="80" viewBox="0 0 80 80" fill="none" xmlns="http://www.w3.org/2000/svg">
<g clip-path="url(#clip0_32_62)">
<path d="M13.3232 43.966C14.0589 43.966 14.6552 43.3696 14.6552 42.634C14.6552 41.8984 14.0589 41.302 13.3232 41.302C12.5876 41.302 11.9912 41.8984 11.9912 42.634C11.9912 43.3696 12.5876 43.966 13.3232 43.966Z" fill="#FFB352"/>
<path d="M18.6518 39.969C19.3875 39.969 19.9838 39.3726 19.9838 38.637C19.9838 37.9013 19.3875 37.305 18.6518 37.305C17.9162 37.305 17.3198 37.9013 17.3198 38.637C17.3198 39.3726 17.9162 39.969 18.6518 39.969Z" fill="#FFB352"/>
<path d="M31.9751 38.636C32.7107 38.636 33.3071 38.0396 33.3071 37.304C33.3071 36.5683 32.7107 35.972 31.9751 35.972C31.2394 35.972 30.6431 36.5683 30.6431 37.304C30.6431 38.0396 31.2394 38.636 31.9751 38.636Z" fill="#FFB352"/>
<path d="M9.32614 50.627C10.0618 50.627 10.6581 50.0307 10.6581 49.295C10.6581 48.5594 10.0618 47.963 9.32614 47.963C8.5905 47.963 7.99414 48.5594 7.99414 49.295C7.99414 50.0307 8.5905 50.627 9.32614 50.627Z" fill="#FFB352"/>
<path d="M15.9868 49.295C16.7224 49.295 17.3188 48.6986 17.3188 47.963C17.3188 47.2273 16.7224 46.631 15.9868 46.631C15.2511 46.631 14.6548 47.2273 14.6548 47.963C14.6548 48.6986 15.2511 49.295 15.9868 49.295Z" fill="#FFB352"/>
<path d="M21.3169 45.298C22.0525 45.298 22.6489 44.7016 22.6489 43.966C22.6489 43.2303 22.0525 42.634 21.3169 42.634C20.5812 42.634 19.9849 43.2303 19.9849 43.966C19.9849 44.7016 20.5812 45.298 21.3169 45.298Z" fill="#FFB352"/>
<path d="M75.942 14.655H57.289V9.326C57.289 8.97273 57.4293 8.63393 57.6791 8.38413C57.9289 8.13433 58.2677 7.994 58.621 7.994H69.28C70.3133 7.95396 71.2909 7.51533 72.0078 6.77012C72.7247 6.02492 73.1251 5.03105 73.1251 3.997C73.1251 2.96295 72.7247 1.96908 72.0078 1.22388C71.2909 0.478671 70.3133 0.040041 69.28 0L57.289 0C55.1702 0.00291274 53.1391 0.84623 51.6414 2.34491C50.1436 3.84359 49.3016 5.87521 49.3 7.994V14.656H30.643C29.5821 14.656 28.5647 15.0774 27.8146 15.8276C27.0644 16.5777 26.643 17.5951 26.643 18.656V19.988C26.646 20.8252 26.9123 21.6402 27.4042 22.3175C27.8962 22.9949 28.5888 23.5002 29.384 23.762L29.884 30.722C29.252 30.685 28.622 30.646 27.979 30.646C26.0492 30.6501 24.1238 30.8312 22.227 31.187L18.995 26.987C22.09 23.923 22.262 20.311 20.67 18.246C19.078 16.181 15.53 15.429 11.79 17.636L10.925 16.508C10.8201 16.3647 10.6875 16.2438 10.5352 16.1525C10.3828 16.0611 10.2137 16.0012 10.0378 15.9762C9.86196 15.9512 9.68287 15.9616 9.51109 16.0068C9.3393 16.0521 9.17831 16.1312 9.03757 16.2396C8.89683 16.348 8.77919 16.4834 8.69158 16.638C8.60397 16.7925 8.54815 16.963 8.52742 17.1394C8.50668 17.3158 8.52144 17.4946 8.57083 17.6653C8.62022 17.8359 8.70324 17.9949 8.81501 18.133L9.68401 19.263C6.57801 22.327 6.42601 25.947 8.00901 28C9.62001 30.09 13.181 30.8 16.889 28.61L19.389 31.852C9.64901 34.64 2.66501 41.994 2.66501 50.628C2.66142 51.2145 2.69482 51.8007 2.76501 52.383C2.84365 53.119 3.12496 53.8187 3.57763 54.4043C4.0303 54.9899 4.63658 55.4385 5.32901 55.7V58.624C4.03588 58.6261 2.78782 59.0993 1.81827 59.955C0.848718 60.8106 0.224084 61.9902 0.0612025 63.273C-0.101679 64.5558 0.208347 65.8541 0.933294 66.9249C1.65824 67.9957 2.74845 68.7658 4.00001 69.091V71.945C4.00043 73.9432 4.75341 75.868 6.10901 77.336H1.33201C0.978611 77.336 0.639684 77.4764 0.389792 77.7263C0.1399 77.9762 -0.000488281 78.3151 -0.000488281 78.6685C-0.000488281 79.0219 0.1399 79.3608 0.389792 79.6107C0.639684 79.8606 0.978611 80.001 1.33201 80.001H78.606C78.9594 80.001 79.2983 79.8606 79.5482 79.6107C79.7981 79.3608 79.9385 79.0219 79.9385 78.6685C79.9385 78.3151 79.7981 77.9762 79.5482 77.7263C79.2983 77.4764 78.9594 77.336 78.606 77.336H71.621C72.8431 76.0135 73.5809 74.3158 73.714 72.52L77.2 23.756C77.995 23.4946 78.6876 22.9896 79.1796 22.3126C79.6716 21.6356 79.938 20.8209 79.941 19.984V18.652C79.941 17.5911 79.5196 16.5737 78.7694 15.8236C78.0193 15.0734 77.0019 14.652 75.941 14.652L75.942 14.655ZM10.115 26.38C9.04901 24.992 10.027 22.801 11.325 21.4L12.063 22.358C12.168 22.5013 12.3005 22.6222 12.4529 22.7135C12.6052 22.8049 12.7743 22.8648 12.9502 22.8898C13.1261 22.9148 13.3052 22.9044 13.4769 22.8592C13.6487 22.8139 13.8097 22.7348 13.9505 22.6264C14.0912 22.518 14.2088 22.3826 14.2964 22.228C14.3841 22.0735 14.4399 21.903 14.4606 21.7266C14.4813 21.5502 14.4666 21.3714 14.4172 21.2007C14.3678 21.0301 14.2848 20.8711 14.173 20.733L13.435 19.775C15.046 18.918 17.464 18.455 18.559 19.875C19.883 21.594 18.117 24.42 16.37 25.765C14.623 27.11 11.44 28.098 10.115 26.379V26.38ZM51.96 7.994C51.96 6.58066 52.5215 5.22521 53.5208 4.22583C54.5202 3.22645 55.8757 2.665 57.289 2.665H69.28C69.6334 2.665 69.9723 2.80539 70.2222 3.05528C70.4721 3.30517 70.6125 3.6441 70.6125 3.9975C70.6125 4.3509 70.4721 4.68983 70.2222 4.93972C69.9723 5.18961 69.6334 5.33 69.28 5.33H58.622C57.5611 5.33 56.5437 5.75143 55.7936 6.50157C55.0434 7.25172 54.622 8.26913 54.622 9.33V14.659H51.96V7.994ZM74.034 30.643H32.55L32.074 23.981H74.511L74.034 30.643ZM71.559 65.283H55.768C55.8879 64.8489 55.9514 64.4013 55.957 63.951C55.957 62.5377 55.3956 61.1822 54.3962 60.1828C53.3968 59.1834 52.0413 58.622 50.628 58.622V55.691C51.3176 55.4332 51.9221 54.989 52.3743 54.408C52.8265 53.8269 53.1085 53.1318 53.189 52.4C53.2596 51.813 53.293 51.2222 53.289 50.631C53.289 50.131 53.24 49.631 53.189 49.139C54.4602 48.8393 55.5769 48.0825 56.3262 47.0128C57.0755 45.943 57.4052 44.635 57.2525 43.3379C57.0999 42.0408 56.4754 40.8451 55.4982 39.9786C54.5209 39.1121 53.2591 38.6353 51.953 38.639C50.907 38.6451 49.8865 38.9629 49.022 39.552C46.6904 36.873 43.7962 34.7417 40.546 33.31H73.845L71.559 65.283ZM50.628 61.283C50.9823 61.2761 51.3343 61.34 51.6636 61.4708C51.9929 61.6016 52.2928 61.7968 52.5457 62.0449C52.7987 62.293 52.9996 62.5891 53.1368 62.9157C53.274 63.2424 53.3446 63.5932 53.3446 63.9475C53.3446 64.3018 53.274 64.6526 53.1368 64.9793C52.9996 65.3059 52.7987 65.602 52.5457 65.8501C52.2928 66.0982 51.9929 66.2934 51.6636 66.4242C51.3343 66.555 50.9823 66.6189 50.628 66.612H25.865L31.194 61.283H50.628ZM51.96 71.945V69.091C52.7578 68.8829 53.496 68.4915 54.116 67.948H71.368L71.056 72.327C70.9532 73.6693 70.3487 74.9236 69.3629 75.8403C68.3771 76.757 67.0822 77.2689 65.736 77.274H49.908C51.2281 75.813 51.9593 73.9141 51.96 71.945ZM50.592 41.7C50.9125 41.5033 51.2713 41.3772 51.6445 41.3301C52.0176 41.283 52.3965 41.316 52.7558 41.427C53.1152 41.5379 53.4468 41.7242 53.7284 41.9734C54.0101 42.2227 54.2353 42.5291 54.3892 42.8723C54.543 43.2154 54.6219 43.5875 54.6206 43.9636C54.6193 44.3397 54.5378 44.7111 54.3815 45.0532C54.2252 45.3953 53.9978 45.7002 53.7144 45.9474C53.431 46.1946 53.0981 46.3786 52.738 46.487C52.2711 44.7912 51.5474 43.1768 50.592 41.7ZM21.128 34.12L24.259 38.185C24.3658 38.3235 24.4989 38.4397 24.6506 38.5268C24.8023 38.6139 24.9697 38.6703 25.1432 38.6927C25.3168 38.7152 25.493 38.7032 25.6619 38.6575C25.8307 38.6118 25.989 38.5333 26.1275 38.4265C26.2661 38.3197 26.3822 38.1866 26.4693 38.0349C26.5564 37.8832 26.6128 37.7158 26.6352 37.5423C26.6577 37.3688 26.6457 37.1925 26.6 37.0237C26.5543 36.8548 26.4758 36.6965 26.369 36.558L24.076 33.582C25.3685 33.4038 26.6713 33.3116 27.976 33.306C40.465 33.306 50.625 41.076 50.625 50.626C50.6268 51.1159 50.5984 51.6055 50.54 52.092C50.5072 52.4219 50.3524 52.7277 50.1061 52.9496C49.8598 53.1716 49.5396 53.2936 49.208 53.292H6.74101C6.40716 53.2914 6.08556 53.1662 5.83919 52.9409C5.59281 52.7156 5.43941 52.4065 5.40901 52.074C5.35287 51.5938 5.32615 51.1105 5.32901 50.627C5.32901 42.9 11.979 36.347 21.129 34.121L21.128 34.12ZM7.99401 55.957H47.963V58.622H30.643C30.4681 58.622 30.2948 58.6564 30.1332 58.7233C29.9716 58.7902 29.8247 58.8883 29.701 59.012L20.048 68.663L11.654 59.07C11.5287 58.9285 11.3748 58.8153 11.2023 58.7379C11.0299 58.6604 10.843 58.6206 10.654 58.621H7.99401V55.957ZM2.66501 63.951C2.66501 63.2442 2.94579 62.5663 3.44557 62.0666C3.94536 61.5668 4.62321 61.286 5.33001 61.286H10.054L14.717 66.615H5.32901C4.62221 66.615 3.94436 66.3342 3.44457 65.8344C2.94479 65.3347 2.66401 64.6568 2.66401 63.95L2.66501 63.951ZM11.991 77.274C10.5777 77.274 9.22222 76.7126 8.22284 75.7132C7.22346 74.7138 6.66201 73.3583 6.66201 71.945V69.28H17.054L18.054 70.419C18.2948 70.693 18.589 70.9148 18.9187 71.0707C19.2484 71.2267 19.6065 71.3136 19.971 71.326H20.058C20.7649 71.3251 21.4427 71.0443 21.943 70.545L23.2 69.28H49.3V71.945C49.3 73.3583 48.7386 74.7138 47.7392 75.7132C46.7398 76.7126 45.3843 77.274 43.971 77.274H11.991ZM77.274 19.985C77.274 20.3383 77.1337 20.6771 76.8839 20.9269C76.6341 21.1767 76.2953 21.317 75.942 21.317H30.642C30.2887 21.317 29.9499 21.1767 29.7001 20.9269C29.4503 20.6771 29.31 20.3383 29.31 19.985V18.652C29.31 18.4771 29.3445 18.3039 29.4114 18.1423C29.4783 17.9807 29.5765 17.8338 29.7001 17.7101C29.8238 17.5864 29.9707 17.4883 30.1323 17.4214C30.2939 17.3545 30.4671 17.32 30.642 17.32H75.942C76.1169 17.32 76.2901 17.3545 76.4518 17.4214C76.6134 17.4883 76.7602 17.5864 76.8839 17.7101C77.0076 17.8338 77.1057 17.9807 77.1726 18.1423C77.2396 18.3039 77.274 18.4771 77.274 18.652V19.985Z" fill="#FFB352"/>
<path d="M65.2831 35.972C64.2291 35.972 63.1988 36.2845 62.3225 36.8701C61.4461 37.4556 60.7631 38.2879 60.3598 39.2617C59.9564 40.2354 59.8509 41.3069 60.0565 42.3406C60.2621 43.3743 60.7697 44.3239 61.5149 45.0692C62.2602 45.8144 63.2097 46.322 64.2435 46.5276C65.2772 46.7332 66.3487 46.6277 67.3224 46.2243C68.2962 45.821 69.1284 45.138 69.714 44.2616C70.2996 43.3853 70.6121 42.355 70.6121 41.301C70.6121 39.8876 70.0507 38.5322 69.0513 37.5328C68.0519 36.5334 66.6964 35.972 65.2831 35.972ZM65.2831 43.966C64.756 43.966 64.2408 43.8097 63.8025 43.5168C63.3643 43.224 63.0227 42.8078 62.821 42.3208C62.6193 41.8339 62.5665 41.298 62.6693 40.7811C62.7721 40.2641 63.026 39.7893 63.3987 39.4165C63.7714 39.0438 64.2462 38.79 64.7632 38.6872C65.2801 38.5844 65.816 38.6371 66.303 38.8388C66.7899 39.0406 67.2061 39.3821 67.499 39.8204C67.7918 40.2586 67.9481 40.7739 67.9481 41.301C67.9481 42.0078 67.6673 42.6856 67.1675 43.1854C66.6678 43.6852 65.9899 43.966 65.2831 43.966Z" fill="#FFB352"/>
<path d="M61.2891 53.292C60.4979 53.292 59.7246 53.5266 59.0668 53.9661C58.409 54.4056 57.8963 55.0304 57.5935 55.7613C57.2908 56.4922 57.2116 57.2964 57.3659 58.0724C57.5203 58.8483 57.9012 59.561 58.4606 60.1204C59.02 60.6798 59.7328 61.0608 60.5087 61.2151C61.2846 61.3695 62.0889 61.2903 62.8198 60.9875C63.5507 60.6848 64.1754 60.1721 64.6149 59.5143C65.0545 58.8565 65.2891 58.0831 65.2891 57.292C65.2891 56.2311 64.8676 55.2137 64.1175 54.4636C63.3673 53.7134 62.3499 53.292 61.2891 53.292ZM61.2891 58.621C61.0254 58.6216 60.7674 58.5439 60.5479 58.3978C60.3284 58.2516 60.1572 58.0436 60.056 57.8001C59.9548 57.5566 59.9282 57.2885 59.9795 57.0299C60.0308 56.7712 60.1577 56.5336 60.3442 56.3471C60.5307 56.1607 60.7683 56.0337 61.0269 55.9824C61.2856 55.9311 61.5537 55.9578 61.7972 56.059C62.0407 56.1602 62.2487 56.3313 62.3948 56.5508C62.541 56.7704 62.6187 57.0283 62.6181 57.292C62.6173 57.6442 62.477 57.9818 62.2279 58.2309C61.9789 58.4799 61.6413 58.6202 61.2891 58.621Z" fill="#FFB352"/>
</g>
<defs>
<clipPath id="clip0_32_62">
<rect width="79.939" height="80" fill="white"/>
</clipPath>
</defs>
</svg>
