<svg width="20" height="20" viewBox="0 0 20 20" fill="none" xmlns="http://www.w3.org/2000/svg">
<path fill-rule="evenodd" clip-rule="evenodd" d="M15.7143 0H12.8571V2.85714H15.7143V0ZM17.1429 0H20V2.85714H17.1429V0ZM17.1429 4.28571H20V7.14286H17.1429V4.28571ZM12.8571 4.28571H15.7143V7.14286H12.8571V4.28571ZM18.5714 14.2857V10H20V14.2857C20 14.6646 19.8495 15.028 19.5816 15.2959C19.3137 15.5638 18.9503 15.7143 18.5714 15.7143H12.8571V18.5714H15.7143V20H4.28571V18.5714H7.14286V15.7143H1.42857C1.04969 15.7143 0.686328 15.5638 0.418419 15.2959C0.15051 15.028 0 14.6646 0 14.2857V2.85714C0 2.47826 0.15051 2.1149 0.418419 1.84699C0.686328 1.57908 1.04969 1.42857 1.42857 1.42857H10V2.85714H1.42857V14.2857H18.5714ZM8.57143 15.7143V18.5714H11.4286V15.7143H8.57143Z" fill="#4D48E5"/>
</svg>
