<svg width="13" height="7" viewBox="0 0 13 7" fill="none" xmlns="http://www.w3.org/2000/svg">
<path d="M0.238028 0.239146C0.162576 0.31441 0.102714 0.40382 0.0618692 0.502255C0.0210245 0.60069 7.46018e-08 0.706217 7.33309e-08 0.81279C7.20601e-08 0.919363 0.0210245 1.02489 0.0618691 1.12332C0.102714 1.22176 0.162576 1.31117 0.238028 1.38643L5.62426 6.77284C5.68422 6.83293 5.75545 6.88061 5.83386 6.91313C5.91227 6.94566 5.99632 6.9624 6.08121 6.9624C6.1661 6.9624 6.25016 6.94566 6.32857 6.91313C6.40698 6.88061 6.4782 6.83293 6.53817 6.77284L11.9244 1.38643C12.242 1.06882 12.242 0.556757 11.9244 0.239146C11.6068 -0.0784639 11.0948 -0.0784639 10.7772 0.239146L6.07797 4.932L1.37879 0.232666C1.06768 -0.0784631 0.549146 -0.078464 0.238028 0.239146Z" fill="#4D48E5"/>
</svg>
