<svg width="40" height="40" viewBox="0 0 40 40" fill="none" xmlns="http://www.w3.org/2000/svg">
<path d="M20 0C14.5631 0 13.8855 0.0262533 11.7577 0.116265C9.6212 0.221278 8.17602 0.552569 6.90086 1.04763C5.56627 1.55147 4.35762 2.34031 3.35917 3.35917C2.33747 4.35529 1.54819 5.56461 1.04763 6.90086C0.552569 8.17602 0.221278 9.6212 0.116265 11.7577C0.0200025 13.8867 0 14.5631 0 20C0 25.4369 0.0262533 26.1145 0.116265 28.2423C0.221278 30.3725 0.552569 31.824 1.04763 33.0991C1.55147 34.4337 2.34031 35.6424 3.35917 36.6408C4.35529 37.6625 5.56461 38.4518 6.90086 38.9524C8.17602 39.4412 9.62745 39.7787 11.7577 39.8837C13.8867 39.98 14.5631 40 20 40C25.4369 40 26.1145 39.9737 28.2423 39.8837C30.3725 39.7787 31.824 39.4399 33.0991 38.9524C34.4337 38.4485 35.6424 37.6597 36.6408 36.6408C37.6638 35.6458 38.4533 34.4362 38.9524 33.0991C39.4412 31.824 39.7787 30.3725 39.8837 28.2423C39.98 26.1133 40 25.4369 40 20C40 14.5631 39.9737 13.8855 39.8837 11.7577C39.7787 9.62745 39.4399 8.16852 38.9524 6.90086C38.4485 5.56627 37.6597 4.35762 36.6408 3.35917C35.6458 2.33615 34.4362 1.54667 33.0991 1.04763C31.824 0.552569 30.3725 0.221278 28.2423 0.116265C26.1133 0.0200025 25.4369 0 20 0ZM20 3.60045C25.3394 3.60045 25.977 3.6267 28.0873 3.71671C30.0338 3.80798 31.0939 4.13302 31.7977 4.40805C32.6679 4.72924 33.4554 5.24047 34.103 5.90449C34.7659 6.54935 35.2752 7.3351 35.5932 8.20353C35.8682 8.90736 36.1933 9.9675 36.2845 11.914C36.3745 14.0243 36.4008 14.6631 36.4008 20.0012C36.4008 25.3394 36.3745 25.9782 36.277 28.0885C36.172 30.035 35.847 31.0951 35.5732 31.799C35.1944 32.7378 34.7718 33.3942 34.0743 34.1043C33.4245 34.7641 32.6374 35.2729 31.769 35.5944C31.0739 35.8695 29.9987 36.1945 28.0448 36.2858C25.9232 36.3758 25.2982 36.4021 19.945 36.4021C14.5918 36.4021 13.968 36.3758 11.844 36.2783C9.89749 36.1733 8.8236 35.8482 8.11976 35.5744C7.16965 35.1956 6.51831 34.7731 5.82073 34.0755C5.11689 33.3717 4.66933 32.7016 4.32429 31.7702C4.04426 31.0751 3.72422 30 3.62045 28.046C3.54919 25.9495 3.51544 25.2994 3.51544 19.9712C3.51544 14.6456 3.54919 13.9942 3.62045 11.8715C3.72422 9.91749 4.04426 8.84486 4.32429 8.14727C4.66933 7.1959 5.11814 6.54582 5.82073 5.84198C6.51706 5.14564 7.16965 4.69559 8.11976 4.34304C8.8236 4.06926 9.87123 3.74422 11.8252 3.64671C13.9467 3.57045 14.5718 3.54294 19.9175 3.54294L20 3.60045ZM20 9.73497C18.6515 9.73447 17.3161 9.99971 16.0702 10.5155C14.8243 11.0313 13.6922 11.7876 12.7387 12.7412C11.7851 13.6947 11.0288 14.8268 10.513 16.0727C9.99721 17.3186 9.73197 18.654 9.73247 20.0025C9.73197 21.351 9.99721 22.6864 10.513 23.9323C11.0288 25.1782 11.7851 26.3103 12.7387 27.2638C13.6922 28.2174 14.8243 28.9737 16.0702 29.4895C17.3161 30.0053 18.6515 30.2705 20 30.27C21.3485 30.2705 22.6839 30.0053 23.9298 29.4895C25.1757 28.9737 26.3078 28.2174 27.2613 27.2638C28.2149 26.3103 28.9711 25.1782 29.487 23.9323C30.0028 22.6864 30.268 21.351 30.2675 20.0025C30.268 18.654 30.0028 17.3186 29.487 16.0727C28.9711 14.8268 28.2149 13.6947 27.2613 12.7412C26.3078 11.7876 25.1757 11.0313 23.9298 10.5155C22.6839 9.99971 21.3485 9.73447 20 9.73497V9.73497ZM20 26.6696C16.3145 26.6696 13.3329 23.688 13.3329 20.0025C13.3329 16.317 16.3145 13.3354 20 13.3354C23.6855 13.3354 26.6671 16.317 26.6671 20.0025C26.6671 23.688 23.6855 26.6696 20 26.6696ZM33.0816 9.32492C33.081 9.96208 32.8274 10.5729 32.3766 11.0232C31.9258 11.4735 31.3147 11.7265 30.6776 11.7265C30.3625 11.7265 30.0506 11.6644 29.7595 11.5438C29.4684 11.4233 29.204 11.2466 28.9812 11.0238C28.7584 10.801 28.5817 10.5366 28.4611 10.2455C28.3406 9.95443 28.2785 9.64246 28.2785 9.32742C28.2785 9.01237 28.3406 8.70041 28.4611 8.40934C28.5817 8.11827 28.7584 7.8538 28.9812 7.63103C29.204 7.40826 29.4684 7.23155 29.7595 7.11098C30.0506 6.99042 30.3625 6.92837 30.6776 6.92837C31.999 6.92837 33.0816 8.0035 33.0816 9.32492V9.32492Z" fill="white"/>
</svg>
