<svg width="20" height="35" viewBox="0 0 20 35" fill="none" xmlns="http://www.w3.org/2000/svg">
<path d="M0.686625 34.2559C0.902828 34.4727 1.15967 34.6446 1.44244 34.762C1.7252 34.8793 2.02834 34.9397 2.33449 34.9397C2.64063 34.9397 2.94377 34.8793 3.22654 34.762C3.5093 34.6446 3.76614 34.4727 3.98235 34.2559L19.4555 18.7828C19.6281 18.6105 19.765 18.4059 19.8585 18.1807C19.9519 17.9554 20 17.7139 20 17.4701C20 17.2262 19.9519 16.9848 19.8585 16.7595C19.765 16.5343 19.6281 16.3296 19.4555 16.1574L3.98235 0.684248C3.06997 -0.228124 1.599 -0.228124 0.686628 0.684248C-0.225747 1.59662 -0.225747 3.06759 0.686627 3.97997L14.1674 17.4794L0.668009 30.9788C-0.225746 31.8726 -0.22575 33.3622 0.686625 34.2559Z" fill="white" fill-opacity="0.6"/>
</svg>
