<svg width="76" height="80" viewBox="0 0 76 80" fill="none" xmlns="http://www.w3.org/2000/svg">
<path d="M75.2276 72.408L69.7668 56H63.7748L67.1024 72H8.5162L11.8438 56H5.85174L0.387001 72.408C-0.999158 76.584 1.45758 80 5.85174 80H69.7668C74.161 80 76.6177 76.584 75.2276 72.408ZM57.7827 20C57.7827 14.6957 55.6784 9.60859 51.9327 5.85786C48.1869 2.10714 43.1066 0 37.8093 0C32.512 0 27.4317 2.10714 23.6859 5.85786C19.9402 9.60859 17.8358 14.6957 17.8358 20C17.8358 39.1 37.8093 60 37.8093 60C37.8093 60 57.7827 39.1 57.7827 20ZM27.0236 20.24C27.0236 14.276 31.8492 9.444 37.8093 9.444C40.6693 9.444 43.4122 10.5816 45.4345 12.6067C47.4568 14.6317 48.593 17.3782 48.593 20.242C48.593 23.1058 47.4568 25.8523 45.4345 27.8773C43.4122 29.9024 40.6693 31.04 37.8093 31.04C34.9487 31.04 32.2054 29.9021 30.1827 27.8768C28.16 25.8514 27.0236 23.1043 27.0236 20.24Z" fill="white"/>
</svg>
