<svg width="80" height="80" viewBox="0 0 80 80" fill="none" xmlns="http://www.w3.org/2000/svg">
<path d="M69.2113 29.4229V40.5201L76.3507 35.8348L69.2113 29.4229ZM67.8803 44.3215C67.6633 44.3215 67.4464 44.2682 67.2467 44.1615C66.8167 43.9282 66.5493 43.4774 66.5493 42.9881V26.4362C66.5493 25.9109 66.8582 25.4336 67.3386 25.2189C67.8138 25.0056 68.3782 25.0922 68.7694 25.4443L79.4173 35.0069C79.7235 35.2842 79.8871 35.6868 79.8552 36.1003C79.8246 36.5136 79.6037 36.8883 79.2577 37.1149L68.6097 44.1029C68.3886 44.2482 68.1344 44.3215 67.8803 44.3215Z" fill="white"/>
<path d="M33.0158 9.3333H46.8434L39.9288 3.12396L33.0158 9.3333ZM50.3212 12H29.5379C28.9868 12 28.4918 11.66 28.2947 11.1426C28.0977 10.6267 28.2374 10.0426 28.6488 9.67327L39.0397 0.339964C39.5468 -0.113321 40.3109 -0.113321 40.818 0.339964L51.2104 9.67327C51.6216 10.0426 51.7614 10.6267 51.5645 11.1426C51.3673 11.6599 50.8723 12 50.3212 12Z" fill="white"/>
<path d="M3.50822 35.8351L10.6476 40.5205V29.4233L3.50822 35.8351ZM11.9786 44.3217C11.7243 44.3217 11.4702 44.2484 11.2492 44.103L0.601227 37.115C0.256502 36.8884 0.0355727 36.5136 0.0036713 36.1004C-0.0269604 35.6871 0.135403 35.283 0.441562 35.007L11.0895 25.4443C11.4809 25.0923 12.0451 25.0044 12.5203 25.219C13.0007 25.4337 13.3096 25.9109 13.3096 26.4363V42.9882C13.3096 43.4775 13.042 43.9283 12.6122 44.1616C12.4138 44.2684 12.1954 44.3217 11.9786 44.3217Z" fill="white"/>
<path d="M5.15108 77.3332H74.7084L39.9298 49.7011L5.15108 77.3332ZM78.5283 79.9997H1.33116C0.764238 79.9997 0.259688 79.641 0.0747871 79.105C-0.111543 78.5691 0.0601855 77.9744 0.504742 77.6211L39.1032 46.9544C39.5863 46.5705 40.2731 46.5705 40.7562 46.9544L79.3547 77.6211C79.7993 77.9744 79.971 78.5691 79.7847 79.105C79.5998 79.6412 79.0952 79.9997 78.5283 79.9997Z" fill="white"/>
<path d="M39.9293 46.6667C40.2221 46.6667 40.5135 46.7627 40.7559 46.9548L49.1929 53.6588L66.5489 42.2683V13.3336C66.5489 12.5989 65.9526 12.0002 65.2179 12.0002H14.6405C13.9058 12.0002 13.3096 12.5989 13.3096 13.3336V42.2681L30.6655 53.6587L39.1026 46.9546C39.3449 46.7627 39.6365 46.6667 39.9293 46.6667ZM49.1183 56.6347C48.8255 56.6347 48.5327 56.5374 48.2918 56.3466L39.9291 49.7013L31.5665 56.3466C31.1193 56.7026 30.4898 56.732 30.0107 56.416L11.2491 44.104C10.8738 43.8573 10.6475 43.4386 10.6475 42.988V13.3336C10.6475 11.1282 12.439 9.3335 14.6404 9.3335H65.2179C67.4194 9.3335 69.2108 11.1282 69.2108 13.3336V42.988C69.2108 43.4386 68.9845 43.8573 68.6093 44.104L49.8478 56.416C49.6254 56.5627 49.3726 56.6347 49.1183 56.6347Z" fill="white"/>
<path d="M51.3912 55.4042L77.1977 75.9068V38.4669L51.3912 55.4042ZM78.5287 80.0002C78.2332 80.0002 77.9403 79.9015 77.7021 79.7109L48.2927 56.347C47.9573 56.0803 47.7695 55.6683 47.7895 55.2403C47.8095 54.8136 48.0332 54.4202 48.3898 54.1856L77.7992 34.8843C78.2079 34.6177 78.7296 34.5962 79.1608 34.827C79.5908 35.0603 79.8597 35.5111 79.8597 36.0004V78.6668C79.8597 79.1789 79.5668 79.6442 79.1077 79.8669C78.9239 79.9562 78.7256 80.0002 78.5287 80.0002Z" fill="white"/>
<path d="M58.5632 27.9997H45.2533C44.5174 27.9997 43.9224 27.4023 43.9224 26.6664C43.9224 25.9304 44.5174 25.333 45.2533 25.333H58.5632C59.2992 25.333 59.8942 25.9304 59.8942 26.6664C59.8942 27.4023 59.2992 27.9997 58.5632 27.9997Z" fill="white"/>
<path d="M39.9296 27.9997H21.2958C20.5599 27.9997 19.9648 27.4023 19.9648 26.6664C19.9648 25.9304 20.5599 25.333 21.2958 25.333H39.9296C40.6657 25.333 41.2605 25.9304 41.2605 26.6664C41.2605 27.4023 40.6655 27.9997 39.9296 27.9997Z" fill="white"/>
<path d="M58.5632 41.3332H45.2533C44.5174 41.3332 43.9224 40.7358 43.9224 39.9999C43.9224 39.2639 44.5174 38.6665 45.2533 38.6665H58.5632C59.2992 38.6665 59.8942 39.2639 59.8942 39.9999C59.8942 40.7358 59.2992 41.3332 58.5632 41.3332Z" fill="white"/>
<path d="M39.9296 41.3332H21.2958C20.5599 41.3332 19.9648 40.7358 19.9648 39.9999C19.9648 39.2639 20.5599 38.6665 21.2958 38.6665H39.9296C40.6657 38.6665 41.2605 39.2639 41.2605 39.9999C41.2605 40.7358 40.6655 41.3332 39.9296 41.3332Z" fill="white"/>
<path d="M58.5633 34.6667H38.5985C37.8626 34.6667 37.2676 34.0693 37.2676 33.3334C37.2676 32.5974 37.8626 32 38.5985 32H58.5633C59.2992 32 59.8942 32.5974 59.8942 33.3334C59.8942 34.0693 59.2992 34.6667 58.5633 34.6667Z" fill="white"/>
<path d="M33.2746 34.6667H21.2958C20.5599 34.6667 19.9648 34.0693 19.9648 33.3334C19.9648 32.5974 20.5599 32 21.2958 32H33.2747C34.0108 32 34.6057 32.5974 34.6057 33.3334C34.6057 34.0693 34.0107 34.6667 33.2746 34.6667Z" fill="white"/>
<path d="M58.5633 21.3332H38.5985C37.8626 21.3332 37.2676 20.7358 37.2676 19.9999C37.2676 19.2639 37.8626 18.6665 38.5985 18.6665H58.5633C59.2992 18.6665 59.8942 19.2639 59.8942 19.9999C59.8942 20.7358 59.2992 21.3332 58.5633 21.3332Z" fill="white"/>
<path d="M33.2746 21.3332H21.2958C20.5599 21.3332 19.9648 20.7358 19.9648 19.9999C19.9648 19.2639 20.5599 18.6665 21.2958 18.6665H33.2747C34.0108 18.6665 34.6057 19.2639 34.6057 19.9999C34.6057 20.7358 34.0107 21.3332 33.2746 21.3332Z" fill="white"/>
<path d="M2.66194 58.6664C2.66194 59.4023 2.06566 59.9997 1.33097 59.9997C0.596287 59.9997 0 59.4023 0 58.6664C0 57.9304 0.596287 57.333 1.33097 57.333C2.06566 57.333 2.66194 57.9302 2.66194 58.6664Z" fill="white"/>
<path d="M1.33097 79.9995C1.13401 79.9995 0.935616 79.9556 0.750715 79.8662C0.292826 79.6435 0 79.1782 0 78.6662V63.9996C0 63.2637 0.595017 62.6663 1.33097 62.6663C2.06693 62.6663 2.66194 63.2637 2.66194 63.9996V75.9076L28.4684 55.4037L2.66194 38.4677V53.333C2.66194 54.0689 2.06693 54.6663 1.33097 54.6663C0.595017 54.6663 0 54.0689 0 53.333V35.9997C0 35.5104 0.267591 35.0596 0.697387 34.8263C1.12734 34.5957 1.65173 34.617 2.06026 34.8851L31.4697 54.1864C31.8263 54.4197 32.05 54.813 32.07 55.241C32.0885 55.6676 31.9022 56.0796 31.5668 56.3463L2.15739 79.7116C1.91789 79.901 1.62634 79.9995 1.33097 79.9995Z" fill="white"/>
</svg>
