<svg width="81" height="80" viewBox="0 0 81 80" fill="none" xmlns="http://www.w3.org/2000/svg">
<path d="M79.3392 48.85L79.3202 48.818C78.4666 47.5184 77.1637 46.5793 75.6608 46.1806C74.158 45.7818 72.5608 45.9515 71.1752 46.657L62.6332 51.025C61.61 49.5884 60.1045 48.5674 58.3912 48.1483C56.6779 47.7292 54.8711 47.9399 53.3002 48.742L42.5442 54.255C41.983 54.5441 41.3602 54.693 40.7289 54.689C40.0976 54.685 39.4767 54.5282 38.9192 54.232L31.5872 50.339C28.8123 48.8577 25.6812 48.1742 22.5414 48.3645C19.4016 48.5548 16.376 49.6114 13.8002 51.417L12.9722 47.469C12.9361 47.2972 12.8664 47.1341 12.7671 46.9893C12.6678 46.8445 12.5409 46.7207 12.3936 46.6251C12.2463 46.5295 12.0816 46.4639 11.9089 46.4321C11.7362 46.4004 11.5589 46.403 11.3872 46.44L1.05224 48.67C0.707998 48.7442 0.40709 48.9515 0.21523 49.2468C0.0233698 49.5421 -0.0438538 49.9013 0.0282397 50.246L6.04724 78.923C6.10856 79.2229 6.27126 79.4926 6.508 79.6868C6.74474 79.8809 7.04109 79.9876 7.34724 79.989C7.4413 79.9886 7.5351 79.9789 7.62724 79.96L17.9702 77.734C18.3158 77.6612 18.6183 77.4542 18.8115 77.1586C19.0046 76.8629 19.0725 76.5027 19.0002 76.157L18.4672 73.591L22.0002 72.83C23.0302 72.6098 24.0905 72.5692 25.1342 72.71L41.7542 74.532C45.2051 74.9884 48.7038 74.1672 51.5912 72.223L78.2142 54.361C79.0848 53.7717 79.69 52.8649 79.9003 51.8349C80.1105 50.8048 79.9092 49.7334 79.3392 48.85ZM8.38024 77.065L2.91424 50.997L10.6462 49.331L16.1122 75.4L8.38024 77.065ZM76.7302 52.15L50.1052 70.013C47.7444 71.5965 44.8853 72.2603 42.0682 71.879L25.4482 70.057C24.1108 69.8767 22.7521 69.9308 21.4332 70.217L17.9112 70.974L14.4002 54.255L15.3102 53.62C17.4844 52.0902 20.0404 51.1937 22.6938 51.0304C25.3472 50.8671 27.9939 51.4433 30.3392 52.695L37.6682 56.585C38.6052 57.0829 39.6487 57.3466 40.7097 57.3538C41.7707 57.3609 42.8177 57.1112 43.7612 56.626L54.5212 51.106C55.5969 50.5562 56.8426 50.4402 58.0013 50.782C59.16 51.1239 60.1432 51.8974 60.7482 52.943C60.9258 53.2492 60.9759 53.6129 60.8876 53.9557C60.7993 54.2985 60.5797 54.5928 60.2762 54.775L45.4422 63.575C42.8488 65.1217 39.7596 65.6108 36.8152 64.941L23.4372 61.741L22.8182 64.335L36.2082 67.535C39.8218 68.3632 43.6155 67.7665 46.8002 65.869L61.6342 57.069C62.242 56.7042 62.7419 56.1845 63.0828 55.563C63.4237 54.9415 63.5933 54.2406 63.5742 53.532L72.3832 49.025C73.1809 48.6199 74.0996 48.5222 74.9645 48.7505C75.8295 48.9788 76.5804 49.5171 77.0742 50.263L77.0892 50.286C77.2819 50.5828 77.3522 50.9428 77.2853 51.2903C77.2183 51.6378 77.0194 51.946 76.7302 52.15Z" fill="#FFB352"/>
<path d="M8.63003 52.4958L6.02002 53.045L6.5686 55.6521L9.17861 55.1029L8.63003 52.4958Z" fill="#FFB352"/>
<path d="M39.2064 50.4C39.4344 50.5662 39.7092 50.6557 39.9914 50.6557C40.2735 50.6557 40.5484 50.5662 40.7764 50.4C54.1524 40.643 62.3864 31.34 65.3764 22.662H72.2304C72.5448 23.5517 73.1637 24.3015 73.9776 24.7791C74.7915 25.2566 75.7479 25.431 76.678 25.2714C77.608 25.1119 78.4517 24.6287 79.0599 23.9073C79.6681 23.1859 80.0017 22.2726 80.0017 21.329C80.0017 20.3854 79.6681 19.4722 79.0599 18.7507C78.4517 18.0293 77.608 17.5461 76.678 17.3866C75.7479 17.2271 74.7915 17.4015 73.9776 17.879C73.1637 18.3565 72.5448 19.1063 72.2304 19.996H66.1204C66.3474 19.0132 66.5055 18.0158 66.5934 17.011C66.8288 14.9865 66.6532 12.9354 66.0773 10.9803C65.5013 9.02525 64.5368 7.20652 63.2414 5.63301C61.9268 3.88171 60.2222 2.46081 58.2628 1.48303C56.3034 0.505251 54.1432 -0.00251455 51.9534 9.36315e-06C47.5521 0.172316 43.3377 1.8248 39.9924 4.69001C36.6467 1.82459 32.432 0.172093 28.0304 9.36315e-06C25.8402 -0.00251427 23.6795 0.505233 21.7196 1.48299C19.7597 2.46076 18.0546 3.88165 16.7394 5.63301C15.4447 7.20692 14.4808 9.02574 13.9052 10.9807C13.3296 12.9357 13.1542 14.9867 13.3894 17.011C14.1934 27.256 22.8794 38.49 39.2064 50.4ZM75.9844 20C76.248 20 76.5057 20.0782 76.7249 20.2247C76.9442 20.3711 77.115 20.5793 77.2159 20.8229C77.3168 21.0665 77.3432 21.3345 77.2918 21.5931C77.2403 21.8516 77.1134 22.0892 76.927 22.2756C76.7405 22.462 76.503 22.589 76.2444 22.6404C75.9859 22.6918 75.7178 22.6654 75.4743 22.5645C75.2307 22.4636 75.0225 22.2928 74.876 22.0736C74.7296 21.8544 74.6514 21.5967 74.6514 21.333C74.6514 20.9795 74.7918 20.6404 75.0418 20.3904C75.2918 20.1404 75.6308 20 75.9844 20ZM18.7204 7.41601C18.7827 7.35518 18.8386 7.28817 18.8874 7.21601C19.9561 5.80258 21.3378 4.65612 22.9242 3.86666C24.5106 3.0772 26.2584 2.66622 28.0304 2.66601C34.2074 2.66601 39.0014 7.36601 39.0494 7.41701C39.1732 7.54092 39.3202 7.63921 39.482 7.70628C39.6438 7.77334 39.8172 7.80786 39.9924 7.80786C40.1675 7.80786 40.341 7.77334 40.5028 7.70628C40.6646 7.63921 40.8116 7.54092 40.9354 7.41701C40.9834 7.36801 45.7424 2.66601 51.9534 2.66601C53.7261 2.65936 55.4758 3.06701 57.0631 3.85646C58.6503 4.64591 60.0311 5.79531 61.0954 7.21301C61.1441 7.28517 61.2001 7.35218 61.2624 7.41301C62.3199 8.7154 63.1022 10.2188 63.5618 11.8323C64.0214 13.4458 64.1489 15.1358 63.9364 16.8C63.8476 17.8806 63.6646 18.9513 63.3894 20H52.7624L47.8144 11.335C47.6904 11.116 47.507 10.9365 47.2853 10.8174C47.0637 10.6982 46.8128 10.6443 46.5617 10.6617C46.3107 10.6792 46.0697 10.7674 45.8666 10.9161C45.6636 11.0648 45.5068 11.2679 45.4144 11.502L38.8204 27.994L34.5994 14.272C34.5238 14.0258 34.3784 13.8067 34.1809 13.6414C33.9835 13.476 33.7423 13.3714 33.4866 13.3402C33.2309 13.3089 32.9717 13.3525 32.7402 13.4655C32.5088 13.5785 32.315 13.7562 32.1824 13.977L28.5714 20H19.9964V22.666H29.3274C29.5573 22.666 29.7833 22.6064 29.9834 22.4932C30.1835 22.38 30.3509 22.217 30.4694 22.02L32.9264 17.92L37.3804 32.385C37.4627 32.6474 37.6241 32.8778 37.8425 33.0449C38.0609 33.2119 38.3256 33.3073 38.6004 33.318H38.6594C38.9259 33.3181 39.1862 33.2383 39.4069 33.0889C39.6276 32.9395 39.7984 32.7274 39.8974 32.48L46.8694 15.048L50.8324 21.98C50.9475 22.1861 51.1153 22.3579 51.3185 22.4779C51.5218 22.5979 51.7533 22.6618 51.9894 22.663H62.5204C60.0534 28.944 53.9204 37.369 39.9914 47.67C21.2074 33.77 16.5914 23.287 16.0554 16.905C15.8274 15.2252 15.9462 13.5164 16.4046 11.8844C16.863 10.2523 17.6511 8.7315 18.7204 7.41601Z" fill="#FFB352"/>
<path d="M10.664 19.996H0V22.662H10.664V19.996Z" fill="#FFB352"/>
</svg>
