<svg width="80" height="35" viewBox="0 0 80 35" fill="none" xmlns="http://www.w3.org/2000/svg">
<path d="M78.667 30.641H72.237C71.54 31.8563 70.5346 32.866 69.3223 33.5682C68.1101 34.2704 66.7339 34.6402 65.333 34.6402C63.9321 34.6402 62.5559 34.2704 61.3437 33.5682C60.1314 32.866 59.126 31.8563 58.429 30.641H21.571C20.8728 31.8596 19.8645 32.8717 18.6486 33.5745C17.4326 34.2773 16.0523 34.6457 14.6479 34.6423C13.2435 34.639 11.865 34.264 10.6524 33.5554C9.4398 32.8468 8.43636 31.8299 7.744 30.608C7.59231 30.5817 7.44643 30.5289 7.313 30.452L0.646001 26.452C0.448694 26.3334 0.285486 26.1656 0.172275 25.9651C0.0590649 25.7647 -0.000287131 25.5383 1.0444e-06 25.308V13.308C0.00335166 13.1507 0.0348488 12.9952 0.093001 12.849C0.108001 12.809 0.124001 12.772 0.142001 12.733C0.160001 12.694 0.169001 12.657 0.190001 12.621L3.813 6.58303L2.807 4.57103C2.71371 4.38446 2.66551 4.17861 2.66627 3.97002C2.66703 3.76143 2.71673 3.55593 2.81137 3.37005C2.90602 3.18417 3.04296 3.02309 3.21119 2.89977C3.37943 2.77646 3.57425 2.69434 3.78 2.66003L10.638 1.51603L13.893 0.975029C29.8569 -1.64154 46.2385 1.04225 60.533 8.61603L64.464 10.716L70.464 12.049C72.4777 12.4925 74.3665 13.3814 75.9917 14.6503C77.6169 15.9192 78.9374 17.536 79.856 19.382C79.9495 19.5665 79.9988 19.7702 80 19.977V29.308C80 29.6616 79.8596 30.0006 79.6096 30.2506C79.3596 30.5006 79.0205 30.641 78.667 30.641ZM60.451 28.774C60.9814 29.9788 61.9395 30.9442 63.1402 31.4837C64.3409 32.0232 65.699 32.0985 66.952 31.695C68.205 31.2915 69.2639 30.4379 69.9242 29.2992C70.5845 28.1604 70.7992 26.8173 70.5269 25.5294C70.2546 24.2415 69.5146 23.1003 68.4498 22.3263C67.3851 21.5522 66.0713 21.2003 64.7622 21.3386C63.4531 21.4768 62.2418 22.0954 61.3622 23.0747C60.4826 24.0541 59.9973 25.3247 60 26.641C60.0015 27.3755 60.1551 28.1018 60.451 28.774ZM9.784 28.774C10.3144 29.9788 11.2725 30.9442 12.4732 31.4837C13.6739 32.0232 15.032 32.0985 16.285 31.695C17.538 31.2915 18.5969 30.4379 19.2572 29.2992C19.9175 28.1604 20.1322 26.8173 19.8599 25.5294C19.5876 24.2415 18.8476 23.1003 17.7828 22.3263C16.7181 21.5522 15.4043 21.2003 14.0952 21.3386C12.7861 21.4768 11.5748 22.0954 10.6952 23.0747C9.81564 24.0541 9.33031 25.3247 9.333 26.641C9.3345 27.3755 9.48806 28.1018 9.784 28.774ZM2.667 17.308H6L8 14.641H2.667V17.308ZM29.528 2.77503C24.446 2.50244 19.3494 2.78275 14.328 3.61103L13.628 3.72803L20.552 10.642H30.652L29.528 2.77503ZM20 13.308C19.825 13.308 19.6517 13.2734 19.4901 13.2063C19.3284 13.1392 19.1816 13.0409 19.058 12.917L10.4 4.25803L6 4.99303L6.534 6.04503C6.63421 6.24588 6.68208 6.46879 6.67316 6.69307C6.66424 6.91736 6.59884 7.13576 6.483 7.32803L3.688 11.974H10.667C10.9147 11.9739 11.1576 12.0429 11.3683 12.1731C11.579 12.3033 11.7493 12.4897 11.86 12.7113C11.9707 12.933 12.0175 13.181 11.995 13.4277C11.9726 13.6744 11.8819 13.91 11.733 14.108L7.733 19.442C7.60875 19.6076 7.44764 19.742 7.26244 19.8345C7.07723 19.927 6.87303 19.9751 6.666 19.975H2.666V24.553L6.666 26.953C6.666 26.848 6.659 26.742 6.659 26.637C6.659 25.5865 6.86593 24.5462 7.26796 23.5756C7.67 22.605 8.25928 21.723 9.00215 20.9802C9.74502 20.2373 10.6269 19.648 11.5975 19.246C12.5681 18.844 13.6084 18.637 14.659 18.637C15.7096 18.637 16.7499 18.844 17.7205 19.246C18.6911 19.648 19.573 20.2373 20.3159 20.9802C21.0587 21.723 21.648 22.605 22.05 23.5756C22.4521 24.5462 22.659 25.5865 22.659 26.637C22.6567 27.0364 22.6233 27.4349 22.559 27.829C22.552 27.876 22.559 27.924 22.548 27.971H33.129L31.035 13.308H20ZM32.249 2.96103L33.349 10.641H58.66C50.4394 6.3882 41.4683 3.7795 32.249 2.96103ZM77.333 22.641H74.667V19.975H77.138C76.3669 18.6319 75.324 17.4644 74.0759 16.5473C72.8279 15.6302 71.4022 14.9837 69.89 14.649L63.854 13.308H33.734L35.823 27.974H57.446C57.4477 27.9268 57.444 27.8795 57.435 27.833C57.3715 27.4385 57.3381 27.0397 57.335 26.64C57.335 24.5183 58.1779 22.4835 59.6781 20.9832C61.1784 19.4829 63.2133 18.64 65.335 18.64C67.4567 18.64 69.4916 19.4829 70.9919 20.9832C72.4921 22.4835 73.335 24.5183 73.335 26.64C73.3327 27.0397 73.2992 27.4386 73.235 27.833C73.228 27.88 73.235 27.927 73.225 27.974H77.337L77.333 22.641Z" fill="#FFB352"/>
</svg>
