<svg width="77" height="80" viewBox="0 0 77 80" fill="none" xmlns="http://www.w3.org/2000/svg">
<path d="M13.4582 42.1714C13.9264 41.9716 14.43 41.8677 14.939 41.8658C15.448 41.864 15.9523 41.9643 16.4219 42.1607C16.8915 42.3571 17.317 42.6458 17.6733 43.0096C18.0295 43.3733 18.3092 43.8048 18.4958 44.2786C18.6824 44.7524 18.7722 45.2587 18.7599 45.7678C18.7475 46.2769 18.6333 46.7783 18.4239 47.2424C18.2145 47.7066 17.9142 48.124 17.5407 48.47C17.1673 48.8161 16.7283 49.0837 16.2497 49.2571C13.704 50.2605 11.5192 52.0071 9.97945 54.2696C8.43971 56.5321 7.61632 59.2058 7.61644 61.9429V68.5714C7.61644 69.5818 8.01766 70.5508 8.73184 71.2652C9.44602 71.9796 10.4147 72.381 11.4247 72.381H41.8904C42.9004 72.381 43.869 71.9796 44.5832 71.2652C45.2974 70.5508 45.6986 69.5818 45.6986 68.5714V62.2971C45.6991 59.4723 44.8413 56.714 43.2389 54.3879C41.6366 52.0619 39.3654 50.2778 36.7265 49.2724C36.2449 49.1052 35.8017 48.843 35.4233 48.5013C35.0449 48.1597 34.7389 47.7455 34.5235 47.2833C34.3081 46.8211 34.1876 46.3204 34.1692 45.8108C34.1508 45.3012 34.2349 44.7931 34.4165 44.3166C34.598 43.8401 34.8734 43.4049 35.2262 43.0368C35.579 42.6688 36.0021 42.3753 36.4704 42.1738C36.9386 41.9723 37.4426 41.867 37.9523 41.8639C38.4621 41.8609 38.9673 41.9603 39.4379 42.1562C43.5188 43.7112 47.0311 46.4698 49.5093 50.0667C51.9875 53.6635 53.3147 57.9287 53.3151 62.2971V68.5714C53.3151 71.6025 52.1114 74.5094 49.9689 76.6526C47.8263 78.7959 44.9204 80 41.8904 80H11.4247C8.39465 80 5.48874 78.7959 3.3462 76.6526C1.20367 74.5094 0 71.6025 0 68.5714V61.9429C0.000524014 57.6768 1.28442 53.5096 3.68468 49.9834C6.08495 46.4572 9.49047 43.7352 13.4582 42.1714ZM26.6575 3.80952C30.6975 3.80952 34.5721 5.41496 37.4288 8.27266C40.2855 11.1304 41.8904 15.0062 41.8904 19.0476V26.6667C41.8904 30.7081 40.2855 34.5839 37.4288 37.4416C34.5721 40.2993 30.6975 41.9048 26.6575 41.9048C22.6175 41.9048 18.743 40.2993 15.8863 37.4416C13.0295 34.5839 11.4247 30.7081 11.4247 26.6667V19.0476C11.4247 15.0062 13.0295 11.1304 15.8863 8.27266C18.743 5.41496 22.6175 3.80952 26.6575 3.80952ZM26.6575 11.4286C24.6375 11.4286 22.7003 12.2313 21.2719 13.6601C19.8435 15.089 19.0411 17.0269 19.0411 19.0476V26.6667C19.0411 28.6874 19.8435 30.6253 21.2719 32.0541C22.7003 33.483 24.6375 34.2857 26.6575 34.2857C28.6775 34.2857 30.6148 33.483 32.0432 32.0541C33.4715 30.6253 34.274 28.6874 34.274 26.6667V19.0476C34.274 17.0269 33.4715 15.089 32.0432 13.6601C30.6148 12.2313 28.6775 11.4286 26.6575 11.4286ZM60.9315 76.1905C59.9215 76.1905 58.9529 75.7891 58.2387 75.0747C57.5245 74.3603 57.1233 73.3913 57.1233 72.381C57.1233 71.3706 57.5245 70.4016 58.2387 69.6872C58.9529 68.9728 59.9215 68.5714 60.9315 68.5714H64.7397C65.7497 68.5714 66.7184 68.1701 67.4325 67.4557C68.1467 66.7412 68.5479 65.7722 68.5479 64.7619V57.76C68.5478 55.052 67.6959 52.4127 66.113 50.2159C64.53 48.0192 62.2963 46.3763 59.7281 45.52C58.7696 45.2007 57.9772 44.5136 57.5251 43.6099C57.073 42.7062 56.9983 41.6598 57.3175 40.701C57.6367 39.7421 58.3235 38.9494 59.227 38.4972C60.1304 38.0449 61.1764 37.9703 62.1349 38.2895C66.2203 39.6513 69.7737 42.2646 72.2917 45.7592C74.8097 49.2537 76.1646 53.4523 76.1644 57.76V64.7619C76.1644 67.7929 74.9607 70.6999 72.8182 72.8431C70.6756 74.9864 67.7697 76.1905 64.7397 76.1905H60.9315ZM49.5069 7.61905C48.4968 7.61905 47.5282 7.21769 46.814 6.50326C46.0999 5.78884 45.6986 4.81987 45.6986 3.80952C45.6986 2.79918 46.0999 1.83021 46.814 1.11578C47.5282 0.401359 48.4968 0 49.5069 0C53.5469 0 57.4214 1.60544 60.2781 4.46313C63.1348 7.32083 64.7397 11.1967 64.7397 15.2381V22.8571C64.7397 26.8985 63.1348 30.7744 60.2781 33.6321C57.4214 36.4898 53.5469 38.0952 49.5069 38.0952C48.4968 38.0952 47.5282 37.6939 46.814 36.9795C46.0999 36.265 45.6986 35.2961 45.6986 34.2857C45.6986 33.2754 46.0999 32.3064 46.814 31.592C47.5282 30.8776 48.4968 30.4762 49.5069 30.4762C51.5269 30.4762 53.4641 29.6735 54.8925 28.2446C56.3208 26.8158 57.1233 24.8778 57.1233 22.8571V15.2381C57.1233 13.2174 56.3208 11.2795 54.8925 9.85061C53.4641 8.42177 51.5269 7.61905 49.5069 7.61905Z" fill="white"/>
</svg>
