<svg width="80" height="74" viewBox="0 0 80 74" fill="none" xmlns="http://www.w3.org/2000/svg">
<path d="M79.64 17.271C79.4913 17.09 79.3043 16.9441 79.0925 16.844C78.8807 16.7439 78.6493 16.692 78.415 16.692H74.668C74.884 14.6629 74.575 12.6123 73.7707 10.7369C72.9665 8.86156 71.6939 7.22425 70.075 5.982C67.8181 4.24376 65.0086 3.38065 62.165 3.552V1.585C62.1648 1.16471 61.9977 0.761715 61.7005 0.464527C61.4033 0.167339 61.0003 0.000264915 60.58 0H39.18C38.7597 0.000264915 38.3567 0.167339 38.0596 0.464527C37.7624 0.761715 37.5953 1.16471 37.595 1.585V5.469H21.023C20.6027 5.46926 20.1997 5.63634 19.9026 5.93353C19.6054 6.23072 19.4383 6.63371 19.438 7.054V16.691H16.601L14.573 8.201C14.4903 7.85431 14.2931 7.54563 14.0133 7.32482C13.7335 7.104 13.3875 6.98393 13.031 6.984H8.65703C8.23653 6.984 7.83325 7.15104 7.53592 7.44838C7.23858 7.74572 7.07153 8.149 7.07153 8.5695C7.07153 8.99 7.23858 9.39328 7.53592 9.69062C7.83325 9.98796 8.23653 10.155 8.65703 10.155H11.779L21.557 51.096L17.857 60.56C16.423 60.7301 15.0828 61.3607 14.0375 62.3571C12.9923 63.3535 12.2983 64.6621 12.0599 66.0864C11.8214 67.5106 12.0513 68.9738 12.715 70.2564C13.3787 71.5389 14.4405 72.5716 15.7409 73.1995C17.0414 73.8274 18.5104 74.0167 19.9275 73.7388C21.3447 73.461 22.6335 72.731 23.6005 71.6586C24.5676 70.5861 25.1608 69.2289 25.291 67.7907C25.4213 66.3525 25.0817 64.9108 24.323 63.682H60.653C59.8787 64.9389 59.5433 66.4173 59.6994 67.8853C59.8556 69.3533 60.4944 70.7281 61.5158 71.794C62.5372 72.86 63.8834 73.5569 65.3434 73.7755C66.8035 73.9941 68.2948 73.7221 69.5836 73.002C70.8724 72.282 71.8859 71.1547 72.4652 69.7968C73.0445 68.4389 73.1568 66.9271 72.7846 65.4985C72.4123 64.0699 71.5766 62.8052 70.4083 61.9026C69.2401 61 67.8053 60.5106 66.329 60.511H21.279L24.287 52.823H68.805C71.378 52.823 73.584 50.76 74.169 47.807L79.969 18.587C80.0146 18.357 80.0087 18.1198 79.9516 17.8925C79.8946 17.6651 79.7878 17.4532 79.639 17.272L79.64 17.271ZM18.64 70.681C17.9478 70.681 17.2711 70.4757 16.6955 70.0911C16.12 69.7066 15.6714 69.1599 15.4065 68.5204C15.1415 67.8809 15.0722 67.1771 15.2073 66.4982C15.3423 65.8193 15.6757 65.1956 16.1652 64.7061C16.6546 64.2166 17.2783 63.8833 17.9572 63.7483C18.6361 63.6132 19.3399 63.6825 19.9794 63.9474C20.619 64.2123 21.1656 64.6609 21.5502 65.2365C21.9348 65.8121 22.14 66.4888 22.14 67.181C22.1403 68.1087 21.7722 68.9986 21.1167 69.6551C20.4611 70.3116 19.5718 70.6809 18.644 70.682L18.64 70.681ZM69.824 67.181C69.824 67.8732 69.6188 68.5499 69.2342 69.1255C68.8496 69.7011 68.303 70.1497 67.6634 70.4146C67.0239 70.6795 66.3201 70.7488 65.6412 70.6137C64.9623 70.4787 64.3386 70.1454 63.8492 69.6559C63.3597 69.1664 63.0263 68.5427 62.8913 67.8638C62.7562 67.1849 62.8255 66.4811 63.0905 65.8416C63.3554 65.2021 63.804 64.6554 64.3795 64.2709C64.9551 63.8863 65.6318 63.681 66.324 63.681C66.7841 63.6805 67.2397 63.7706 67.6649 63.9464C68.09 64.1221 68.4764 64.3799 68.8018 64.7051C69.1273 65.0302 69.3854 65.4164 69.5615 65.8414C69.7376 66.2664 69.8282 66.722 69.828 67.182L69.824 67.181ZM75.059 27.034H60.368L58.59 19.861H76.484L75.059 27.034ZM73.005 37.378H62.932L61.154 30.205H74.43L73.005 37.378ZM52.183 49.652L49.927 40.552H60.452L62.708 49.652H52.183ZM38.391 49.652L36.135 40.552H46.66L48.916 49.652H38.391ZM24.474 49.652L22.3 40.552H32.867L35.123 49.652H24.474ZM55.323 19.863L57.101 27.034H46.575L44.797 19.861L55.323 19.863ZM41.531 19.863L43.309 27.034H32.783L31.005 19.861L41.531 19.863ZM44.096 30.207L45.875 37.38H35.348L33.57 30.207H44.096ZM32.081 37.38H21.542L19.829 30.207H30.303L32.081 37.38ZM49.14 37.38L47.362 30.207H57.887L59.666 37.38H49.14ZM71.487 14.28C71.594 15.0821 71.5889 15.8952 71.472 16.696H62.164V6.728C64.3881 6.55707 66.5933 7.24388 68.327 8.64749C70.0606 10.0511 71.1914 12.065 71.487 14.276V14.28ZM40.761 3.171H58.993V16.692H44.012V7.055C44.0119 6.84656 43.9707 6.64018 43.8907 6.44768C43.8108 6.25518 43.6937 6.08032 43.5461 5.93311C43.3985 5.78591 43.2234 5.66923 43.0307 5.58977C42.838 5.5103 42.6315 5.4696 42.423 5.47H40.761V3.171ZM22.608 8.641H40.841V16.693H22.609L22.608 8.641ZM27.737 19.864L29.517 27.034H19.071L17.358 19.861L27.737 19.864ZM68.804 49.653H65.974L63.718 40.553H72.376L71.058 47.191C70.776 48.616 69.823 49.652 68.805 49.652L68.804 49.653Z" fill="#FFB352"/>
<path d="M1.563 10.164C2.42622 10.164 3.126 9.46425 3.126 8.60102C3.126 7.7378 2.42622 7.03802 1.563 7.03802C0.699779 7.03802 0 7.7378 0 8.60102C0 9.46425 0.699779 10.164 1.563 10.164Z" fill="#FFB352"/>
</svg>
