<svg width="80" height="80" viewBox="0 0 80 80" fill="none" xmlns="http://www.w3.org/2000/svg">
<path d="M48.1649 75.649C47.8655 75.7312 47.6111 75.9291 47.4575 76.1989C47.3039 76.4687 47.2638 76.7885 47.3459 77.088C47.4437 77.3772 47.6442 77.6204 47.9095 77.7713C48.1748 77.9223 48.4864 77.9706 48.7849 77.907C49.0844 77.8248 49.3389 77.6269 49.4925 77.3571C49.646 77.0872 49.6862 76.7674 49.6039 76.468C49.5217 76.1685 49.3239 75.914 49.054 75.7604C48.7842 75.6068 48.4644 75.5668 48.1649 75.649Z" fill="#FFB352"/>
<path d="M42.2307 76.745C42.0004 76.7677 41.782 76.8581 41.6031 77.0049C41.4242 77.1517 41.2929 77.3482 41.2257 77.5697C41.1585 77.7911 41.1585 78.0275 41.2256 78.2489C41.2928 78.4704 41.4241 78.6669 41.6029 78.8137C41.7818 78.9606 42.0001 79.051 42.2304 79.0738C42.4607 79.0965 42.6925 79.0504 42.8966 78.9414C43.1007 78.8324 43.2679 78.6652 43.377 78.4612C43.4861 78.2571 43.5323 78.0253 43.5097 77.7951C43.4791 77.4863 43.3272 77.2023 43.0874 77.0054C42.8476 76.8086 42.5395 76.7149 42.2307 76.745Z" fill="#FFB352"/>
<path d="M30.2297 75.91C29.928 75.8368 29.6096 75.8864 29.3445 76.048C29.0795 76.2095 28.8894 76.4698 28.8162 76.7714C28.743 77.0731 28.7927 77.3916 28.9542 77.6566C29.1158 77.9217 29.376 78.1118 29.6777 78.185C29.9777 78.2394 30.2872 78.1818 30.5475 78.0231C30.8078 77.8643 31.0008 77.6156 31.0897 77.324C31.1261 77.1747 31.1328 77.0196 31.1092 76.8677C31.0857 76.7158 31.0325 76.5701 30.9527 76.4388C30.8728 76.3075 30.7678 76.1932 30.6438 76.1024C30.5198 76.0117 30.3791 75.9463 30.2297 75.91Z" fill="#FFB352"/>
<path d="M36.1946 76.832C35.9637 76.816 35.7333 76.8687 35.5324 76.9837C35.3315 77.0986 35.1692 77.2705 35.0661 77.4776C34.9629 77.6848 34.9235 77.9179 34.9528 78.1474C34.9821 78.377 35.0788 78.5927 35.2307 78.7673C35.3827 78.9419 35.5829 79.0675 35.8062 79.1282C36.0295 79.189 36.2659 79.1821 36.4853 79.1086C36.7047 79.035 36.8974 78.898 37.0389 78.7149C37.1805 78.5319 37.2646 78.3109 37.2806 78.0801C37.2914 77.9268 37.272 77.7728 37.2232 77.6271C37.1745 77.4813 37.0975 77.3466 36.9966 77.2306C36.8957 77.1147 36.7729 77.0198 36.6353 76.9514C36.4977 76.883 36.3479 76.8425 36.1946 76.832Z" fill="#FFB352"/>
<path d="M53.8248 73.565C53.6856 73.6301 53.5605 73.722 53.4569 73.8355C53.3532 73.949 53.2729 74.0818 53.2206 74.2263C53.1683 74.3708 53.145 74.5242 53.1521 74.6778C53.1592 74.8313 53.1964 74.9819 53.2618 75.121C53.3976 75.3982 53.6358 75.6119 53.9261 75.7169C54.2163 75.8219 54.536 75.8101 54.8178 75.684C55.0988 75.5524 55.316 75.3144 55.4216 75.0226C55.5271 74.7308 55.5125 74.409 55.3808 74.128C55.2491 73.847 55.0112 73.6299 54.7194 73.5243C54.4276 73.4187 54.1058 73.4333 53.8248 73.565Z" fill="#FFB352"/>
<path d="M59.0537 70.554C58.8637 70.6861 58.7172 70.8716 58.6327 71.0869C58.5481 71.3023 58.5293 71.5379 58.5787 71.764C58.628 71.99 58.7433 72.1964 58.9099 72.3569C59.0764 72.5175 59.2869 72.625 59.5146 72.666C59.7424 72.7069 59.9771 72.6795 60.1892 72.587C60.4013 72.4946 60.5813 72.3413 60.7063 72.1466C60.8313 71.9519 60.8958 71.7245 60.8916 71.4932C60.8874 71.2619 60.8147 71.037 60.6827 70.847C60.5953 70.7203 60.4838 70.6122 60.3545 70.5288C60.2251 70.4455 60.0806 70.3886 59.9292 70.3613C59.7777 70.3341 59.6224 70.3371 59.4722 70.3701C59.3219 70.4032 59.1797 70.4657 59.0537 70.554Z" fill="#FFB352"/>
<path d="M72.326 56.4309C72.0476 56.2938 71.7261 56.2729 71.4322 56.3729C71.1383 56.4728 70.8962 56.6855 70.7591 56.964C70.6219 57.2424 70.6011 57.5639 70.701 57.8578C70.801 58.1517 71.0136 58.3938 71.292 58.5309C71.571 58.6636 71.8906 58.6823 72.1831 58.5829C72.4756 58.4836 72.7177 58.2741 72.8581 57.9989C72.9954 57.7204 73.0165 57.3988 72.9167 57.1048C72.817 56.8107 72.6045 56.5684 72.326 56.4309Z" fill="#FFB352"/>
<path d="M75.4717 44.406C75.1637 44.3694 74.8537 44.4565 74.6099 44.6484C74.3661 44.8402 74.2085 45.121 74.1717 45.429C74.157 45.7558 74.2705 46.0755 74.4878 46.3199C74.7052 46.5644 75.0094 46.7144 75.3357 46.738C75.622 46.7374 75.8981 46.6319 76.112 46.4416C76.3259 46.2513 76.4627 45.9893 76.4967 45.705C76.5147 45.5524 76.5024 45.3978 76.4607 45.2499C76.4189 45.102 76.3484 44.9638 76.2532 44.8432C76.158 44.7226 76.0401 44.6219 75.906 44.5469C75.7719 44.4719 75.6243 44.424 75.4717 44.406Z" fill="#FFB352"/>
<path d="M74.412 50.553C74.1172 50.4745 73.8034 50.5141 73.5374 50.6634C73.2713 50.8127 73.0741 51.0599 72.9875 51.3524C72.901 51.645 72.9321 51.9597 73.0741 52.2297C73.2161 52.4997 73.4579 52.7036 73.748 52.798C74.0452 52.8691 74.3583 52.8276 74.6268 52.6815C74.8952 52.5355 75.1002 52.2952 75.202 52.007C75.2456 51.8597 75.2597 51.7052 75.2436 51.5524C75.2275 51.3996 75.1815 51.2514 75.1081 51.1164C75.0348 50.9814 74.9355 50.8621 74.8161 50.7655C74.6966 50.6688 74.5593 50.5966 74.412 50.553Z" fill="#FFB352"/>
<path d="M63.704 66.704C63.5387 66.8659 63.425 67.0732 63.3775 67.2997C63.33 67.5262 63.3506 67.7618 63.437 67.9765C63.5233 68.1912 63.6714 68.3755 63.8625 68.5061C64.0536 68.6367 64.2791 68.7076 64.5105 68.71C64.7419 68.7124 64.9689 68.6461 65.1626 68.5195C65.3563 68.3929 65.5082 68.2116 65.5989 67.9987C65.6896 67.7858 65.7152 67.5508 65.6723 67.3233C65.6294 67.0959 65.52 66.8863 65.358 66.721C65.1408 66.4998 64.8446 66.3737 64.5346 66.3705C64.2245 66.3674 63.9258 66.4873 63.704 66.704Z" fill="#FFB352"/>
<path d="M69.2768 61.872C69.0894 61.7363 68.866 61.6592 68.6348 61.6504C68.4035 61.6416 68.1749 61.7016 67.9777 61.8227C67.7806 61.9439 67.6238 62.1208 67.5272 62.3311C67.4306 62.5414 67.3986 62.7756 67.4351 63.0041C67.4716 63.2326 67.575 63.4451 67.7323 63.6148C67.8896 63.7845 68.0937 63.9038 68.3188 63.9575C68.5438 64.0113 68.7798 63.9971 68.9968 63.9167C69.2138 63.8363 69.4021 63.6934 69.5378 63.506C69.7194 63.2546 69.7939 62.9414 69.745 62.6351C69.696 62.3288 69.5277 62.0544 69.2768 61.872Z" fill="#FFB352"/>
<path d="M18.6406 11.38C18.901 11.3803 19.1542 11.2938 19.3599 11.1342C19.5657 10.9746 19.7124 10.7509 19.7768 10.4986C19.8412 10.2462 19.8197 9.97963 19.7156 9.74091C19.6115 9.50219 19.4308 9.30498 19.202 9.18047C18.9733 9.05596 18.7096 9.01125 18.4526 9.05342C18.1956 9.09558 17.96 9.22222 17.783 9.41329C17.6061 9.60437 17.4979 9.84898 17.4755 10.1085C17.4532 10.3679 17.5179 10.6274 17.6596 10.846C17.7652 11.0101 17.9104 11.145 18.0819 11.2383C18.2533 11.3316 18.4454 11.3803 18.6406 11.38Z" fill="#FFB352"/>
<path d="M24.136 8.44404C24.3249 8.43104 24.5082 8.37459 24.6717 8.27908C24.8351 8.18356 24.9743 8.05158 25.0784 7.89341C25.1825 7.73524 25.2486 7.55517 25.2716 7.36725C25.2946 7.17933 25.2738 6.98863 25.211 6.81004C25.0883 6.5251 24.8575 6.30055 24.5692 6.18578C24.281 6.07102 23.959 6.07542 23.674 6.19803C23.4263 6.30443 23.223 6.49309 23.0984 6.73212C22.9737 6.97114 22.9355 7.24587 22.99 7.50985C23.0446 7.77383 23.1886 8.01088 23.3978 8.18091C23.607 8.35095 23.8684 8.44354 24.138 8.44304L24.136 8.44404Z" fill="#FFB352"/>
<path d="M36.2089 5.54295C36.2359 5.54295 36.2619 5.54295 36.2869 5.54295C36.5916 5.53272 36.88 5.4032 37.09 5.18232C37.3001 4.96143 37.4149 4.66686 37.4098 4.3621C37.4047 4.05734 37.28 3.76679 37.0627 3.55308C36.8453 3.33937 36.5528 3.2196 36.248 3.2196C35.9431 3.2196 35.6505 3.33937 35.4332 3.55308C35.2159 3.76679 35.0912 4.05734 35.0861 4.3621C35.081 4.66686 35.1958 4.96143 35.4059 5.18232C35.6159 5.4032 35.9043 5.53272 36.2089 5.54295Z" fill="#FFB352"/>
<path d="M30.0486 6.47904C30.2212 6.46635 30.3892 6.41785 30.5419 6.33662C30.6947 6.25539 30.8288 6.14322 30.9358 6.00726C31.0428 5.87131 31.1202 5.71454 31.1632 5.54698C31.2063 5.37941 31.2139 5.20472 31.1856 5.03404C31.134 4.82058 31.0234 4.62597 30.8663 4.47244C30.7093 4.31892 30.5123 4.21269 30.2977 4.1659C30.0831 4.11911 29.8597 4.13366 29.653 4.20787C29.4464 4.28208 29.2647 4.41296 29.1289 4.58554C28.9931 4.75812 28.9087 4.96544 28.8851 5.18379C28.8616 5.40213 28.9 5.62268 28.996 5.82022C29.0919 6.01776 29.2415 6.1843 29.4277 6.30081C29.6139 6.41732 29.829 6.47908 30.0486 6.47904Z" fill="#FFB352"/>
<path d="M13.7167 15.198C13.9853 15.1981 14.2457 15.1057 14.4543 14.9364C14.6628 14.7672 14.8067 14.5313 14.8619 14.2684C14.9171 14.0055 14.8802 13.7317 14.7573 13.4929C14.6344 13.254 14.4331 13.0647 14.1872 12.9567C13.9413 12.8488 13.6657 12.8287 13.4067 12.8999C13.1477 12.9711 12.9211 13.1293 12.765 13.3478C12.6088 13.5663 12.5326 13.8319 12.5491 14.1C12.5656 14.3681 12.6739 14.6223 12.8557 14.82C12.9649 14.9396 13.098 15.0349 13.2463 15.1C13.3945 15.1651 13.5548 15.1985 13.7167 15.198Z" fill="#FFB352"/>
<path d="M2.21568 46.911C1.91106 46.9685 1.64171 47.1446 1.46678 47.4005C1.29185 47.6564 1.22563 47.9714 1.28268 48.2761C1.3574 48.5718 1.53756 48.83 1.7893 49.0021C2.04104 49.1743 2.34701 49.2486 2.64968 49.2111C2.95468 49.1535 3.22432 48.9772 3.3993 48.7208C3.57427 48.4644 3.64023 48.1491 3.58268 47.8441C3.52513 47.5391 3.34877 47.2694 3.09241 47.0944C2.83605 46.9195 2.52068 46.8535 2.21568 46.911Z" fill="#FFB352"/>
<path d="M2.03505 36.798C2.33847 36.8239 2.64093 36.7384 2.88589 36.5575C3.13084 36.3766 3.30154 36.1127 3.36605 35.8151C3.40047 35.5862 3.36625 35.3523 3.26773 35.1429C3.16921 34.9336 3.01081 34.7581 2.81257 34.6387C2.61433 34.5194 2.38514 34.4615 2.154 34.4724C1.92285 34.4833 1.70012 34.5624 1.51398 34.6999C1.32784 34.8374 1.18665 35.027 1.10825 35.2447C1.02986 35.4624 1.01778 35.6985 1.07356 35.9231C1.12933 36.1476 1.25045 36.3506 1.42159 36.5064C1.59274 36.6621 1.80622 36.7636 2.03505 36.798Z" fill="#FFB352"/>
<path d="M1.79869 43.028H1.82069C2.13092 43.0225 2.42628 42.8941 2.6419 42.6709C2.85752 42.4478 2.97577 42.1482 2.97069 41.838C2.96675 41.6075 2.89479 41.3833 2.76386 41.1935C2.63293 41.0038 2.44885 40.8569 2.23474 40.7714C2.02064 40.6859 1.78604 40.6656 1.56042 40.713C1.3348 40.7603 1.1282 40.8733 0.966564 41.0377C0.804931 41.2021 0.695469 41.4106 0.651922 41.637C0.608374 41.8634 0.632683 42.0976 0.721795 42.3102C0.810907 42.5228 0.96085 42.7044 1.1528 42.8321C1.34475 42.9598 1.57014 43.028 1.80069 43.028H1.79869Z" fill="#FFB352"/>
<path d="M3.28908 30.6909C3.58384 30.7721 3.89825 30.7411 4.17146 30.6039C4.44467 30.4666 4.65725 30.2329 4.76808 29.9479C4.84076 29.7283 4.84668 29.492 4.7851 29.269C4.72351 29.0459 4.59718 28.8462 4.42208 28.695C4.24698 28.5437 4.03097 28.4478 3.80136 28.4193C3.57174 28.3908 3.33884 28.4311 3.13209 28.5349C2.92534 28.6388 2.75402 28.8016 2.6398 29.0028C2.52559 29.204 2.47359 29.4346 2.49039 29.6654C2.5072 29.8961 2.59204 30.1167 2.73421 30.2993C2.87637 30.4818 3.06946 30.6181 3.28908 30.6909Z" fill="#FFB352"/>
<path d="M5.56199 24.884C5.83678 25.0258 6.15607 25.0548 6.45191 24.9648C6.74774 24.8747 6.99677 24.6728 7.14599 24.402C7.25504 24.1977 7.30104 23.9656 7.27817 23.7351C7.25531 23.5046 7.1646 23.2861 7.01752 23.1071C6.87044 22.9282 6.67361 22.7969 6.4519 22.7298C6.2302 22.6628 5.99359 22.663 5.772 22.7304C5.55041 22.7978 5.3538 22.9295 5.20702 23.1086C5.06025 23.2878 4.9699 23.5065 4.94742 23.737C4.92494 23.9676 4.97133 24.1996 5.08073 24.4037C5.19012 24.6079 5.3576 24.775 5.56199 24.884Z" fill="#FFB352"/>
<path d="M8.78389 19.543C8.96686 19.6847 9.18775 19.769 9.41861 19.7851C9.64947 19.8013 9.87994 19.7486 10.0809 19.6338C10.2818 19.5189 10.4441 19.3471 10.5474 19.14C10.6506 18.9328 10.6901 18.6997 10.6609 18.4702C10.6316 18.2406 10.535 18.0249 10.3831 17.8502C10.2312 17.6756 10.031 17.5499 9.80771 17.4891C9.58442 17.4283 9.34811 17.4351 9.12866 17.5086C8.90922 17.5821 8.7165 17.719 8.57489 17.902C8.38558 18.1476 8.30128 18.4581 8.34045 18.7657C8.37962 19.0733 8.53907 19.3528 8.78389 19.543Z" fill="#FFB352"/>
<path d="M79.2918 19.522L74.9468 17.655C74.6349 16.6447 74.2437 15.6607 73.7768 14.712L75.5178 10.35C75.6025 10.138 75.6233 9.90577 75.5776 9.68206C75.5319 9.45835 75.4218 9.25289 75.2608 9.091L70.9608 4.769C70.7984 4.60582 70.5915 4.49412 70.366 4.44788C70.1405 4.40163 69.9063 4.42289 69.6928 4.509L65.6328 6.149C64.5654 5.55993 63.4439 5.07471 62.2838 4.7L60.5838 0.71C60.494 0.499904 60.3446 0.320712 60.1541 0.19454C59.9636 0.0683675 59.7403 0.000738492 59.5118 0L53.4338 0C53.2041 1.11187e-05 52.9795 0.0676261 52.788 0.194416C52.5965 0.321206 52.4465 0.501561 52.3568 0.713L50.6568 4.703C49.4968 5.07671 48.3753 5.56093 47.3078 6.149L43.2498 4.509C43.0363 4.42276 42.8021 4.40143 42.5766 4.44768C42.351 4.49393 42.1441 4.6057 41.9818 4.769L37.6818 9.091C37.5208 9.25289 37.4107 9.45835 37.365 9.68206C37.3193 9.90577 37.3401 10.138 37.4248 10.35L39.1658 14.712C38.7868 15.4822 38.4575 16.2758 38.1798 17.088C33.0937 17.0859 28.1322 18.662 23.9798 21.599C23.7403 21.7833 23.5814 22.053 23.5361 22.3518C23.4909 22.6505 23.5629 22.9552 23.7371 23.2021C23.9113 23.449 24.1742 23.619 24.4709 23.6766C24.7675 23.7341 25.0749 23.6748 25.3288 23.511C39.8778 13.049 60.7658 23.879 60.6118 41.811C60.6082 44.9082 59.9638 47.9711 58.719 50.8071C57.4742 53.6431 55.656 56.1908 53.3788 58.29C53.2597 58.3996 53.1646 58.5327 53.0995 58.6809C53.0344 58.8291 53.0008 58.9891 53.0008 59.151V63.6L49.0088 61.913C48.8547 61.848 48.6885 61.8168 48.5214 61.8214C48.3542 61.8261 48.19 61.8665 48.0398 61.94C45.1963 63.3214 42.0933 64.0875 38.9336 64.1881C35.7739 64.2888 32.6285 63.7217 29.7028 62.524L30.8838 61.31C31.0429 61.1464 31.1508 60.94 31.1941 60.7159C31.2375 60.4919 31.2144 60.2601 31.1278 60.049L29.5898 56.31C29.5025 56.0976 29.3545 55.9155 29.1644 55.7866C28.9743 55.6577 28.7505 55.5876 28.5208 55.585L25.8098 55.554C25.3585 55.0052 24.8632 54.4942 24.3288 54.026L24.2998 51.333C24.2975 51.1041 24.228 50.8808 24.1 50.691C23.972 50.5012 23.7912 50.353 23.5798 50.265L19.8648 48.717C19.6523 48.6284 19.4183 48.6044 19.1922 48.6482C18.9661 48.692 18.7579 48.8015 18.5938 48.963L17.4218 50.115C15.9115 46.2988 15.4744 42.1419 16.158 38.095C16.8416 34.0481 18.6198 30.2654 21.2998 27.157C21.4884 26.9207 21.5784 26.6206 21.5508 26.3196C21.5232 26.0185 21.3802 25.7398 21.1518 25.5417C20.9234 25.3436 20.6272 25.2416 20.3252 25.2569C20.0233 25.2723 19.739 25.4038 19.5318 25.624C16.5903 29.0355 14.632 33.1828 13.8666 37.6218C13.1013 42.0608 13.5576 46.6244 15.1868 50.824C14.9801 50.834 14.7735 50.8487 14.5668 50.868L12.6298 48.961C12.4657 48.7998 12.2577 48.6905 12.0319 48.6467C11.806 48.603 11.5723 48.6267 11.3598 48.715L7.64381 50.262C7.43243 50.3498 7.25146 50.4977 7.12331 50.6874C6.99515 50.877 6.92544 51.1001 6.92281 51.329L6.88981 54.263C6.44606 54.6631 6.02915 55.0921 5.64181 55.547L2.69981 55.579C2.47025 55.5815 2.24649 55.6515 2.0564 55.7802C1.86632 55.9089 1.71831 56.0908 1.63081 56.303L0.0908098 60.039C0.00394364 60.25 -0.0193346 60.4818 0.0238404 60.7058C0.0670154 60.9299 0.174759 61.1364 0.33381 61.3L2.39481 63.42C2.34813 64.0189 2.34078 64.6202 2.37281 65.22L0.33181 67.32C0.172591 67.4835 0.0646607 67.69 0.0213071 67.914C-0.0220465 68.1381 0.00106984 68.3699 0.0878098 68.581L1.62481 72.317C1.71216 72.5294 1.8601 72.7115 2.0502 72.8404C2.24029 72.9693 2.46413 73.0394 2.69381 73.042L5.40481 73.073C5.85615 73.6214 6.35146 74.1321 6.88581 74.6L6.91481 77.294C6.91716 77.5229 6.98663 77.7462 7.11462 77.936C7.2426 78.1258 7.42347 78.274 7.63481 78.362L11.3498 79.91C11.5624 79.9986 11.7963 80.0226 12.0224 79.9788C12.2485 79.935 12.4567 79.8255 12.6208 79.664L14.5328 77.785C15.2377 77.8336 15.9454 77.8245 16.6488 77.758L18.5868 79.665C18.7515 79.8253 18.9594 79.934 19.1851 79.9777C19.4107 80.0214 19.6442 79.9982 19.8568 79.911L23.5718 78.365C23.783 78.277 23.9638 78.1291 24.0917 77.9394C24.2197 77.7498 24.2893 77.5268 24.2918 77.298L24.3248 74.363C24.7686 73.9629 25.1855 73.534 25.5728 73.079L28.5158 73.047C28.7454 73.0445 28.9691 72.9745 29.1592 72.8458C29.3493 72.7171 29.4973 72.5352 29.5848 72.323L31.1248 68.588C31.2119 68.3769 31.2353 68.1449 31.1921 67.9206C31.1489 67.6964 31.0411 67.4897 30.8818 67.326L28.8208 65.2C28.8341 65.032 28.8441 64.8653 28.8508 64.7C31.9943 65.9811 35.3671 66.604 38.7609 66.53C42.1546 66.456 45.4971 65.6869 48.5818 64.27L53.7158 66.439C53.8937 66.5143 54.0876 66.5444 54.2799 66.5265C54.4723 66.5087 54.6573 66.4434 54.8183 66.3367C54.9793 66.2299 55.1114 66.0849 55.2028 65.9147C55.2941 65.7444 55.3419 65.5542 55.3418 65.361V59.661C60.0571 55.1288 62.7911 48.9174 62.9488 42.379C63.8735 42.0424 64.7709 41.6349 65.6328 41.16L69.6948 42.8C69.9085 42.8851 70.1424 42.9058 70.3677 42.8596C70.593 42.8134 70.7998 42.7023 70.9628 42.54L75.2628 38.218C75.4238 38.0561 75.5339 37.8507 75.5796 37.6269C75.6253 37.4032 75.6045 37.171 75.5198 36.959L73.7788 32.597C74.2456 31.6483 74.6368 30.6642 74.9488 29.654L79.2938 27.787C79.5042 27.6961 79.6834 27.5454 79.8089 27.3535C79.9344 27.1617 80.0008 26.9372 79.9998 26.708V20.6C79.9998 20.3712 79.9328 20.1475 79.8069 19.9564C79.6811 19.7653 79.502 19.6153 79.2918 19.525V19.522ZM27.7148 70.714L24.9998 70.744C24.8242 70.746 24.6514 70.7875 24.494 70.8654C24.3367 70.9433 24.1988 71.0556 24.0908 71.194C23.5952 71.8286 23.033 72.4083 22.4138 72.923C22.2832 73.0314 22.1778 73.1668 22.1048 73.32C22.0317 73.4731 21.9928 73.6403 21.9908 73.81L21.9608 76.5L19.6738 77.452L17.8888 75.7C17.7607 75.574 17.6054 75.4791 17.4347 75.4227C17.2641 75.3664 17.0828 75.35 16.9048 75.375C16.0179 75.4999 15.1188 75.512 14.2288 75.411C14.0556 75.3913 13.8801 75.4105 13.7152 75.4672C13.5503 75.524 13.4002 75.6168 13.2758 75.739L11.5308 77.454L9.24681 76.5L9.22081 74.039C9.21892 73.8659 9.17865 73.6954 9.10291 73.5398C9.02717 73.3842 8.91784 73.2473 8.78281 73.139C8.08162 72.5766 7.45402 71.9282 6.91481 71.209C6.80715 71.0654 6.66791 70.9486 6.50787 70.8674C6.34782 70.7862 6.17125 70.743 5.99181 70.741L3.49181 70.713L2.54481 68.4L4.41581 66.477C4.53416 66.3556 4.6247 66.2099 4.68117 66.05C4.73763 65.8901 4.75866 65.7198 4.74281 65.551C4.66758 64.7468 4.67831 63.9369 4.77481 63.135C4.79572 62.9616 4.77756 62.7858 4.72167 62.6204C4.66578 62.455 4.57357 62.3041 4.45181 62.179L2.55181 60.221L3.49981 57.911L6.21581 57.882C6.39155 57.8802 6.56462 57.8387 6.72216 57.7608C6.8797 57.6829 7.01767 57.5705 7.12581 57.432C7.62026 56.7965 8.18147 56.2158 8.79981 55.7C8.93024 55.5916 9.03553 55.4561 9.1084 55.3029C9.18127 55.1498 9.21997 54.9826 9.22181 54.813L9.25281 52.123L11.5398 51.171L13.3238 52.927C13.4518 53.0532 13.6072 53.1481 13.7778 53.2045C13.9485 53.2609 14.1298 53.2771 14.3078 53.252C15.0573 53.1465 15.816 53.1213 16.5708 53.177C16.8023 53.2635 17.0536 53.2823 17.2954 53.2311C17.5371 53.18 17.7593 53.0609 17.9358 52.888L19.6798 51.173L21.9658 52.126L21.9998 54.59C22.0017 54.7631 22.042 54.9336 22.1177 55.0892C22.1934 55.2448 22.3028 55.3817 22.4378 55.49C23.1369 56.0531 23.7625 56.7019 24.2998 57.421C24.4075 57.5646 24.5467 57.6814 24.7068 57.7626C24.8668 57.8437 25.0434 57.887 25.2228 57.889L27.7228 57.917L28.6728 60.226L27.0378 61.9C26.8519 62.0314 26.7025 62.2079 26.6035 62.4129C26.5045 62.6179 26.4592 62.8447 26.4718 63.072C26.547 63.8765 26.5363 64.6868 26.4398 65.489C26.4191 65.6622 26.4373 65.8378 26.4932 66.0031C26.5491 66.1683 26.6412 66.319 26.7628 66.444L28.6628 68.402L27.7148 70.714ZM48.8478 19.487C49.5893 18.1096 50.6894 16.9582 52.0317 16.1548C53.374 15.3514 54.9085 14.9258 56.4728 14.923C65.4728 15.033 68.4118 26.935 60.6168 31.323C58.1732 26.1406 54.0163 21.96 48.8478 19.487ZM77.6598 25.937L73.5168 27.717C73.356 27.7862 73.2128 27.8906 73.0977 28.0224C72.9826 28.1543 72.8986 28.3103 72.8518 28.479C72.5134 29.6953 72.0461 30.872 71.4578 31.989C71.3788 32.1387 71.3333 32.3038 71.3243 32.4728C71.3153 32.6418 71.3431 32.8108 71.4058 32.968L73.0588 37.109L69.8508 40.335L65.9828 38.774C65.8162 38.7068 65.6363 38.6789 65.4572 38.6924C65.2781 38.706 65.1044 38.7606 64.9498 38.852C64.2845 39.2452 63.5929 39.592 62.8798 39.89C62.7119 37.7087 62.2532 35.5597 61.5158 33.5C63.3235 32.5708 64.8383 31.159 65.8923 29.4212C66.9463 27.6833 67.4982 25.6874 67.4868 23.655C67.3558 12.079 52.0648 8.363 46.6818 18.58C44.731 17.8658 42.6974 17.4021 40.6298 17.2C40.8784 16.5545 41.1646 15.9241 41.4868 15.312C41.5658 15.1623 41.6113 14.9972 41.6203 14.8282C41.6293 14.6592 41.6015 14.4902 41.5388 14.333L39.8868 10.2L43.0938 6.97L46.9618 8.531C47.1291 8.59906 47.3099 8.62744 47.49 8.61391C47.6701 8.60038 47.8446 8.5453 47.9998 8.453C49.2095 7.73724 50.5047 7.17714 51.8548 6.786C52.0218 6.73769 52.176 6.65275 52.3061 6.53737C52.4362 6.42199 52.5389 6.27907 52.6068 6.119L54.2078 2.34H58.7368L60.3428 6.119C60.4107 6.27907 60.5134 6.42199 60.6435 6.53737C60.7736 6.65275 60.9278 6.73769 61.0948 6.786C62.4449 7.17714 63.7401 7.73724 64.9498 8.453C65.1044 8.54444 65.2781 8.59903 65.4572 8.61256C65.6363 8.62609 65.8162 8.59818 65.9828 8.531L69.8508 6.97L73.0588 10.2L71.4058 14.341C71.3432 14.4982 71.3154 14.6672 71.3244 14.8362C71.3334 15.0052 71.3789 15.1703 71.4578 15.32C72.0461 16.437 72.5134 17.6137 72.8518 18.83C72.8986 18.9987 72.9826 19.1547 73.0977 19.2866C73.2128 19.4184 73.356 19.5228 73.5168 19.592L77.6598 21.372V25.937Z" fill="#FFB352"/>
<path d="M27.8636 49.267H28.7116C29.3481 49.267 29.9586 49.0141 30.4087 48.5641C30.8587 48.114 31.1116 47.5035 31.1116 46.867V39.767C31.1116 39.1305 30.8587 38.52 30.4087 38.0699C29.9586 37.6199 29.3481 37.367 28.7116 37.367C28.1983 37.3459 27.6841 37.3593 27.1726 37.407C27.7136 34.8778 29.1059 32.6108 31.117 30.9844C33.1281 29.3581 35.6362 28.4708 38.2226 28.4708C40.809 28.4708 43.3171 29.3581 45.3282 30.9844C47.3393 32.6108 48.7316 34.8778 49.2726 37.407C48.7611 37.3593 48.2469 37.3459 47.7336 37.367C47.0971 37.367 46.4866 37.6199 46.0365 38.0699C45.5865 38.52 45.3336 39.1305 45.3336 39.767V46.867C45.3336 47.5035 45.5865 48.114 46.0365 48.5641C46.4866 49.0141 47.0971 49.267 47.7336 49.267C48.2516 49.261 49.1466 49.259 49.5066 49.261C49.5054 50.2801 49.1431 51.2658 48.484 52.0432C47.825 52.8205 46.9118 53.3391 45.9066 53.507C45.6579 52.8629 45.2203 52.3091 44.6511 51.9183C44.082 51.5275 43.408 51.3179 42.7176 51.317H40.4706C39.5644 51.317 38.6952 51.677 38.0544 52.3178C37.4136 52.9586 37.0536 53.8278 37.0536 54.734C37.0536 55.6403 37.4136 56.5094 38.0544 57.1502C38.6952 57.791 39.5644 58.151 40.4706 58.151H42.7176C43.4258 58.1501 44.1163 57.9296 44.6939 57.5198C45.2715 57.11 45.7078 56.5311 45.9426 55.863C47.5657 55.6799 49.0647 54.906 50.1541 53.6889C51.2434 52.4717 51.8469 50.8964 51.8496 49.263V48.29C52.675 47.7423 53.3508 46.9974 53.816 46.1229C54.2812 45.2483 54.521 44.2716 54.5139 43.281C54.5068 42.2905 54.2528 41.3173 53.7751 40.4495C53.2973 39.5818 52.6108 38.8468 51.7776 38.311C51.4368 34.9935 49.8878 31.9173 47.4256 29.668C39.2786 22.111 25.7346 27.298 24.6686 38.311C23.5904 39.0061 22.7656 40.0309 22.3169 41.2327C21.8683 42.4345 21.8198 43.7491 22.1786 44.9807C22.5375 46.2124 23.2846 47.2951 24.3086 48.0678C25.3326 48.8405 26.5788 49.2618 27.8616 49.269L27.8636 49.267ZM42.7186 55.812H40.4716C40.186 55.812 39.912 55.6985 39.7101 55.4966C39.5081 55.2946 39.3946 55.0206 39.3946 54.735C39.3946 54.4494 39.5081 54.1754 39.7101 53.9734C39.912 53.7715 40.186 53.658 40.4716 53.658H42.7186C43.0042 53.658 43.2782 53.7715 43.4801 53.9734C43.6821 54.1754 43.7956 54.4494 43.7956 54.735C43.7956 55.0206 43.6821 55.2946 43.4801 55.4966C43.2782 55.6985 43.0042 55.812 42.7186 55.812ZM48.5856 46.927C48.5856 46.927 47.6856 46.981 47.6856 46.871V39.771C47.6856 39.661 48.5936 39.715 48.5856 39.715C49.542 39.715 50.4592 40.0949 51.1354 40.7712C51.8117 41.4474 52.1916 42.3646 52.1916 43.321C52.1916 44.2774 51.8117 45.1946 51.1354 45.8708C50.4592 46.5471 49.542 46.927 48.5856 46.927ZM27.8636 39.717C27.8636 39.717 28.7636 39.663 28.7636 39.773V46.873C28.7636 46.983 27.8556 46.929 27.8636 46.929C26.918 46.9132 26.0165 46.5266 25.3534 45.8523C24.6903 45.178 24.3186 44.2702 24.3186 43.3245C24.3186 42.3788 24.6903 41.471 25.3534 40.7967C26.0165 40.1224 26.918 39.7358 27.8636 39.72V39.717Z" fill="#FFB352"/>
<path d="M18.5528 57.186C17.6194 56.7982 16.6186 56.5987 15.6079 56.5989C14.5971 56.5991 13.5964 56.799 12.6631 57.1871C11.7299 57.5753 10.8826 58.144 10.1698 58.8606C9.45704 59.5773 8.8929 60.4277 8.5098 61.363C7.95607 62.7096 7.79442 64.1855 8.0435 65.6201C8.29259 67.0547 8.94226 68.3896 9.91754 69.4708C10.8928 70.552 12.1539 71.3353 13.5554 71.7305C14.9568 72.1256 16.4414 72.1164 17.8378 71.704C18.132 71.6112 18.3776 71.4061 18.5213 71.1332C18.6649 70.8603 18.695 70.5416 18.605 70.2466C18.515 69.9516 18.3121 69.7041 18.0405 69.5579C17.7689 69.4117 17.4506 69.3787 17.1548 69.466C15.9736 69.8249 14.7044 69.7616 13.5648 69.287C12.2533 68.7326 11.2138 67.6827 10.6726 66.3658C10.1313 65.0488 10.1321 63.5714 10.6748 62.255C11.199 60.9757 12.1985 59.9494 13.4634 59.3914C14.7284 58.8334 16.1602 58.7873 17.4585 59.2626C18.7567 59.738 19.8202 60.6979 20.4257 61.9407C21.0312 63.1836 21.1316 64.6127 20.7058 65.928C20.613 66.2241 20.6416 66.545 20.7853 66.82C20.9291 67.095 21.1762 67.3017 21.4723 67.3945C21.7684 67.4873 22.0893 67.4587 22.3643 67.315C22.6393 67.1712 22.846 66.9241 22.9388 66.628C23.5153 64.7909 23.3854 62.8048 22.5745 61.0584C21.7636 59.312 20.3302 57.9311 18.5548 57.186H18.5528Z" fill="#FFB352"/>
</svg>
