<svg width="40" height="40" viewBox="0 0 40 40" fill="none" xmlns="http://www.w3.org/2000/svg">
<path d="M8 4C6.93913 4 5.92172 4.42143 5.17157 5.17157C4.42143 5.92172 4 6.93913 4 8V32C4 33.0609 4.42143 34.0783 5.17157 34.8284C5.92172 35.5786 6.93913 36 8 36H32C33.0609 36 34.0783 35.5786 34.8284 34.8284C35.5786 34.0783 36 33.0609 36 32V8C36 6.93913 35.5786 5.92172 34.8284 5.17157C34.0783 4.42143 33.0609 4 32 4H8ZM8 0H32C34.1217 0 36.1566 0.842855 37.6569 2.34315C39.1571 3.84344 40 5.87827 40 8V32C40 34.1217 39.1571 36.1566 37.6569 37.6569C36.1566 39.1571 34.1217 40 32 40H8C5.87827 40 3.84344 39.1571 2.34315 37.6569C0.842855 36.1566 0 34.1217 0 32V8C0 5.87827 0.842855 3.84344 2.34315 2.34315C3.84344 0.842855 5.87827 0 8 0V0Z" fill="white"/>
<path d="M27.3397 14.9681L24.7137 27.3361C24.5317 28.2181 24.0017 28.4241 23.2637 28.0181L19.2637 25.0621L17.3457 26.9301C17.1217 27.1481 16.9457 27.3301 16.5457 27.3301C16.0277 27.3301 16.1137 27.1361 15.9397 26.6421L14.5777 22.1681L10.6217 20.9361C9.76574 20.6741 9.75974 20.0861 10.8157 19.6681L26.2277 13.7181C26.9277 13.4001 27.6097 13.8861 27.3397 14.9681Z" fill="white"/>
</svg>
