<svg width="40" height="40" viewBox="0 0 40 40" fill="none" xmlns="http://www.w3.org/2000/svg">
<path d="M30 13.894C29.264 14.214 28.474 14.434 27.644 14.53C28.492 14.03 29.14 13.238 29.448 12.296C28.6399 12.767 27.7582 13.0983 26.84 13.276C26.4538 12.8712 25.9891 12.5492 25.4743 12.3299C24.9596 12.1105 24.4055 11.9983 23.846 12C21.58 12 19.744 13.81 19.744 16.04C19.744 16.356 19.78 16.664 19.85 16.96C18.2247 16.8828 16.6332 16.4677 15.1773 15.7411C13.7214 15.0145 12.4329 13.9924 11.394 12.74C11.0291 13.3542 10.837 14.0556 10.838 14.77C10.838 16.17 11.564 17.41 12.664 18.132C12.0129 18.1116 11.3757 17.9383 10.804 17.626V17.676C10.8102 18.6149 11.1416 19.5227 11.7418 20.2447C12.3421 20.9668 13.174 21.4584 14.096 21.636C13.4907 21.7961 12.8574 21.8193 12.242 21.704C12.5103 22.5118 13.0233 23.2159 13.71 23.7188C14.3967 24.2216 15.223 24.4982 16.074 24.51C14.6139 25.6351 12.8213 26.243 10.978 26.238C10.648 26.238 10.322 26.218 10 26.182C11.8809 27.3726 14.0619 28.0032 16.288 28C23.836 28 27.962 21.844 27.962 16.504L27.948 15.98C28.7526 15.4146 29.4479 14.7078 30 13.894V13.894Z" fill="white"/>
<path d="M8 4C6.93913 4 5.92172 4.42143 5.17157 5.17157C4.42143 5.92172 4 6.93913 4 8V32C4 33.0609 4.42143 34.0783 5.17157 34.8284C5.92172 35.5786 6.93913 36 8 36H32C33.0609 36 34.0783 35.5786 34.8284 34.8284C35.5786 34.0783 36 33.0609 36 32V8C36 6.93913 35.5786 5.92172 34.8284 5.17157C34.0783 4.42143 33.0609 4 32 4H8ZM8 0H32C34.1217 0 36.1566 0.842855 37.6569 2.34315C39.1571 3.84344 40 5.87827 40 8V32C40 34.1217 39.1571 36.1566 37.6569 37.6569C36.1566 39.1571 34.1217 40 32 40H8C5.87827 40 3.84344 39.1571 2.34315 37.6569C0.842855 36.1566 0 34.1217 0 32V8C0 5.87827 0.842855 3.84344 2.34315 2.34315C3.84344 0.842855 5.87827 0 8 0V0Z" fill="white"/>
</svg>
