<svg width="81" height="80" viewBox="0 0 81 80" fill="none" xmlns="http://www.w3.org/2000/svg">
<path d="M29.104 50.111C28.9012 49.6243 28.5586 49.2088 28.1195 48.9169C27.6804 48.6251 27.1646 48.4701 26.6373 48.4716C26.1101 48.4731 25.5952 48.631 25.1577 48.9253C24.7203 49.2197 24.38 49.6372 24.18 50.125L20.725 58.692L19.708 61.139C19.2345 62.2886 19.035 63.5325 19.1255 64.7725C19.2159 66.0125 19.5937 67.2144 20.229 68.283C20.8109 69.2833 21.6208 70.132 22.5927 70.7602C23.5646 71.3884 24.671 71.7782 25.822 71.898C26.0954 71.9266 26.3701 71.941 26.645 71.941C26.9189 71.941 27.1926 71.927 27.465 71.899C28.6173 71.7804 29.7252 71.391 30.6984 70.7628C31.6716 70.1346 32.4825 69.2852 33.065 68.284C33.7005 67.2154 34.0784 66.0135 34.1688 64.7735C34.2592 63.5335 34.0597 62.2895 33.586 61.14L29.104 50.111ZM30.771 66.919C30.4 67.5616 29.8824 68.1075 29.2605 68.5122C28.6386 68.9169 27.9298 69.169 27.192 69.248C26.8263 69.2861 26.4577 69.2861 26.092 69.248C25.3546 69.1687 24.6463 68.9164 24.0247 68.5117C23.4032 68.107 22.8859 67.5613 22.515 66.919C22.0915 66.2077 21.8394 65.4075 21.7787 64.5818C21.7179 63.7562 21.8502 62.9277 22.165 62.162L26.635 51.123L30.1 59.716L31.117 62.162C31.432 62.9277 31.5644 63.7561 31.5036 64.5818C31.4429 65.4075 31.1907 66.2077 30.767 66.919H30.771Z" fill="#FFB352"/>
<path d="M7.99313 45.2939C7.63987 45.2939 7.30107 45.4343 7.05127 45.6841C6.80147 45.9339 6.66113 46.2727 6.66113 46.6259V47.9579C6.66113 48.3112 6.80147 48.65 7.05127 48.8998C7.30107 49.1496 7.63987 49.2899 7.99313 49.2899C8.3464 49.2899 8.6852 49.1496 8.935 48.8998C9.1848 48.65 9.32513 48.3112 9.32513 47.9579V46.6259C9.32513 46.2727 9.1848 45.9339 8.935 45.6841C8.6852 45.4343 8.3464 45.2939 7.99313 45.2939Z" fill="#FFB352"/>
<path d="M7.99313 51.9561C7.63987 51.9561 7.30107 52.0964 7.05127 52.3462C6.80147 52.596 6.66113 52.9348 6.66113 53.2881V70.6041C6.66113 70.9573 6.80147 71.2961 7.05127 71.5459C7.30107 71.7957 7.63987 71.9361 7.99313 71.9361C8.3464 71.9361 8.6852 71.7957 8.935 71.5459C9.1848 71.2961 9.32513 70.9573 9.32513 70.6041V53.2881C9.32513 53.1131 9.29068 52.9399 9.22374 52.7783C9.1568 52.6167 9.05869 52.4699 8.935 52.3462C8.81131 52.2225 8.66447 52.1244 8.50287 52.0575C8.34126 51.9905 8.16805 51.9561 7.99313 51.9561Z" fill="#FFB352"/>
<path d="M72.488 43.264C69.224 41.585 66.401 40.096 65.378 36.818L71.453 30.743C71.7005 30.4956 71.8968 30.2019 72.0307 29.8787C72.1646 29.5554 72.2335 29.2089 72.2335 28.859C72.2335 28.5091 72.1646 28.1626 72.0307 27.8394C71.8968 27.5161 71.7005 27.2224 71.453 26.975L62.975 18.496C62.6688 18.1901 62.2927 17.9635 61.8792 17.8358C61.4657 17.7081 61.0273 17.6831 60.602 17.763L48.964 1.13501C48.7409 0.816658 48.4508 0.551 48.1141 0.35668C47.7774 0.16236 47.4022 0.0440874 47.0149 0.010163C46.6277 -0.0237615 46.2377 0.0274847 45.8723 0.160305C45.5069 0.293124 45.1751 0.504299 44.9 0.779006L29.773 15.902C29.3651 16.3124 29.1013 16.8439 29.021 17.4169C28.9408 17.9899 29.0485 18.5734 29.328 19.08L31.285 22.604L27.761 20.645C27.254 20.366 26.6703 20.2587 26.0973 20.3391C25.5243 20.4195 24.9926 20.6833 24.582 21.091L20.764 24.91C20.5989 25.0793 20.4573 25.27 20.343 25.477C14.547 25.791 0 27.081 0 31.972V37.301C0.0213296 37.7743 0.15285 38.2361 0.384093 38.6496C0.615336 39.0632 0.939917 39.417 1.332 39.683V73.522C1.3399 73.5976 1.35497 73.6723 1.377 73.745V73.763C1.39459 73.8817 1.42824 73.9974 1.477 74.107C3.077 78.678 17.758 79.933 26.64 79.933C36.04 79.933 51.953 78.533 51.953 73.271V50.239L56.8 45.391C60.077 46.413 61.567 49.236 63.246 52.501C64.1227 54.3838 65.2183 56.1567 66.51 57.783C67.09 58.4577 67.8044 59.0041 68.6075 59.3872C69.4105 59.7703 70.2846 59.9817 71.174 60.008C71.256 60.008 71.338 60.008 71.42 60.008C73.2044 60.0066 74.9157 59.2983 76.179 58.038L78.027 56.191C78.6809 55.5373 79.1935 54.7561 79.5329 53.896C79.8723 53.0358 80.0313 52.1151 80 51.191C79.9736 50.3018 79.7621 49.4279 79.379 48.625C78.9959 47.8221 78.4496 47.1079 77.775 46.528C76.1483 45.2362 74.3751 44.1407 72.492 43.264H72.488ZM69.571 28.858L48.845 49.584L40.367 41.105L61.092 20.381L69.571 28.858ZM3.451 37.92C3.14827 37.7705 2.88071 37.5585 2.666 37.298V37.298V35.214C3.1919 35.4716 3.73328 35.6964 4.287 35.887L4.345 35.907C9.054 37.613 17.379 38.631 26.645 38.631C29.293 38.631 31.94 38.531 34.529 38.36L37.75 40.615C37.743 40.653 37.744 40.693 37.739 40.732C34.0531 41.1096 30.3502 41.2975 26.645 41.295C16.317 41.295 6.786 39.909 3.451 37.917V37.92ZM27.315 33.312L30.989 35.883C29.547 35.938 28.097 35.969 26.646 35.969C21.0841 36.0173 15.529 35.5715 10.046 34.637C15.529 33.7028 21.0842 33.257 26.646 33.305C26.874 33.305 27.094 33.311 27.315 33.312V33.312ZM26.467 22.975L34.067 27.197C34.3201 27.3381 34.6123 27.3928 34.8994 27.3528C35.1864 27.3128 35.4525 27.1803 35.6574 26.9754C35.8623 26.7705 35.9948 26.5044 36.0348 26.2174C36.0748 25.9303 36.0201 25.6381 35.879 25.385L31.657 17.785L37.452 11.991L45.938 22.175C46.1641 22.4465 46.4888 22.617 46.8406 22.649C47.1924 22.6811 47.5426 22.5721 47.814 22.346C48.0854 22.1199 48.256 21.7952 48.288 21.4434C48.3201 21.0916 48.2111 20.7415 47.985 20.47L39.344 10.1L46.781 2.66301L58.417 19.291L39.273 38.431L22.649 26.791L26.467 22.975ZM20.357 28.15C20.5499 28.4769 20.8104 28.7588 21.121 28.977L23.555 30.677C15.813 30.87 8.991 31.787 4.772 33.217C3.98599 32.983 3.26482 32.5703 2.665 32.011V32.004C3.071 30.943 8.655 28.79 20.357 28.15V28.15ZM26.645 77.269C12.542 77.269 4.42 74.661 4 73.257V41.105C8.594 42.866 17.069 43.962 26.648 43.962C30.7077 43.9676 34.7647 43.7476 38.8 43.303L46.964 51.467C47.2625 51.7719 47.6315 51.9985 48.0384 52.1271C48.4453 52.2556 48.8775 52.282 49.297 52.204V73.254C48.888 74.654 40.764 77.269 26.648 77.269H26.645ZM76.145 54.313L74.3 56.16C73.9039 56.5535 73.4315 56.8618 72.9117 57.0658C72.392 57.2697 71.836 57.3651 71.278 57.346C70.7552 57.3321 70.2411 57.2093 69.7684 56.9854C69.2958 56.7616 68.875 56.4416 68.533 56.046C67.3817 54.5765 66.4045 52.9785 65.621 51.284C64.078 48.284 62.363 44.949 58.884 43.315L63.3 38.897C64.934 42.376 68.269 44.091 71.269 45.634C72.9635 46.4175 74.5614 47.3947 76.031 48.546C76.4264 48.888 76.7462 49.3086 76.9701 49.7811C77.1939 50.2535 77.3168 50.7674 77.331 51.29C77.3508 51.8481 77.2557 52.4043 77.0517 52.9241C76.8477 53.4439 76.5391 53.9163 76.145 54.312V54.313Z" fill="#FFB352"/>
<path d="M46.019 39.221L45.0769 40.163C44.9532 40.2867 44.8551 40.4336 44.7881 40.5952C44.7212 40.7568 44.6868 40.9301 44.6868 41.105C44.6868 41.2799 44.7212 41.4532 44.7881 41.6148C44.8551 41.7764 44.9532 41.9233 45.0769 42.047C45.2006 42.1707 45.3475 42.2688 45.5091 42.3358C45.6708 42.4027 45.844 42.4372 46.019 42.4372C46.1939 42.4372 46.3671 42.4027 46.5287 42.3358C46.6904 42.2688 46.8372 42.1707 46.9609 42.047L47.903 41.105C48.1528 40.8552 48.2931 40.5163 48.2931 40.163C48.2931 39.8097 48.1528 39.4708 47.903 39.221C47.6531 38.9712 47.3143 38.8308 46.9609 38.8308C46.6076 38.8308 46.2688 38.9712 46.019 39.221V39.221Z" fill="#FFB352"/>
<path d="M60.1489 25.091L49.7869 35.453C49.656 35.5751 49.551 35.7222 49.4783 35.8857C49.4055 36.0492 49.3664 36.2257 49.3632 36.4046C49.3601 36.5836 49.3931 36.7613 49.4601 36.9272C49.5271 37.0932 49.6269 37.2439 49.7535 37.3705C49.88 37.497 50.0307 37.5968 50.1967 37.6638C50.3626 37.7309 50.5404 37.7638 50.7193 37.7607C50.8982 37.7576 51.0747 37.7184 51.2382 37.6457C51.4017 37.5729 51.5489 37.4679 51.6709 37.337L62.0329 26.974C62.1566 26.8503 62.2547 26.7035 62.3217 26.5418C62.3886 26.3802 62.4231 26.207 62.4231 26.032C62.4231 25.8571 62.3886 25.6838 62.3217 25.5222C62.2547 25.3606 62.1566 25.2137 62.0329 25.09C61.9092 24.9663 61.7623 24.8682 61.6007 24.8012C61.4391 24.7343 61.2658 24.6998 61.0909 24.6998C60.916 24.6998 60.7427 24.7343 60.5811 24.8012C60.4195 24.8682 60.2726 24.9663 60.1489 25.09V25.091Z" fill="#FFB352"/>
</svg>
