<svg width="80" height="80" viewBox="0 0 80 80" fill="none" xmlns="http://www.w3.org/2000/svg">
<path d="M76.366 40.3306V29.0866C76.3607 27.2631 75.669 25.5083 74.4286 24.1716C73.1883 22.8349 71.4901 22.0141 69.672 21.8726L59.23 3.63365C58.7592 2.80797 58.1296 2.08368 57.3775 1.50255C56.6254 0.921427 55.7656 0.494967 54.8479 0.247771C53.9301 0.000575155 52.9725 -0.0624632 52.0303 0.0622921C51.088 0.187047 50.1798 0.497127 49.358 0.974645L13.558 21.8136H7.276C5.34713 21.8147 3.49752 22.5812 2.13332 23.9448C0.769122 25.3085 0.00185439 27.1578 0 29.0866V72.7216C0.00185439 74.6505 0.769122 76.4998 2.13332 77.8634C3.49752 79.2271 5.34713 79.9936 7.276 79.9946H69.093C71.0214 79.9928 72.8702 79.2259 74.2337 77.8624C75.5973 76.4988 76.3641 74.65 76.366 72.7216V61.4786C77.4261 61.1046 78.3444 60.4117 78.9951 59.495C79.6457 58.5783 79.9968 57.4828 80 56.3586V45.4496C79.9966 44.3257 79.6454 43.2303 78.9948 42.3138C78.3442 41.3973 77.4259 40.7046 76.366 40.3306ZM65.446 21.8136H49.6L61.485 14.8946L65.446 21.8136ZM59.678 11.7386L42.372 21.8136H35.194L57.883 8.60365L59.678 11.7386ZM51.188 4.11665C51.5912 3.8794 52.0377 3.725 52.5013 3.6625C52.9649 3.6 53.4364 3.63064 53.888 3.75265C54.346 3.8747 54.775 4.08686 55.15 4.37669C55.525 4.66653 55.8384 5.02823 56.072 5.44065V5.44765L27.967 21.8136H20.79L51.188 4.11665ZM72.729 72.7216C72.7277 73.6856 72.3442 74.6096 71.6626 75.2912C70.981 75.9728 70.0569 76.3563 69.093 76.3576H7.276C6.31208 76.3563 5.38802 75.9728 4.70642 75.2912C4.02483 74.6096 3.64132 73.6856 3.64 72.7216V29.0866C3.64132 28.1227 4.02483 27.1987 4.70642 26.5171C5.38802 25.8355 6.31208 25.452 7.276 25.4506H69.093C70.0569 25.452 70.981 25.8355 71.6626 26.5171C72.3442 27.1987 72.7277 28.1227 72.729 29.0866V39.9946H61.82C60.3874 39.9946 58.9688 40.2768 57.6453 40.825C56.3218 41.3733 55.1192 42.1768 54.1062 43.1898C53.0932 44.2028 52.2896 45.4054 51.7414 46.729C51.1932 48.0525 50.911 49.4711 50.911 50.9036C50.911 52.3362 51.1932 53.7548 51.7414 55.0783C52.2896 56.4019 53.0932 57.6045 54.1062 58.6175C55.1192 59.6305 56.3218 60.434 57.6453 60.9822C58.9688 61.5305 60.3874 61.8126 61.82 61.8126H72.729V72.7216ZM76.365 56.3586C76.3647 56.8407 76.1731 57.303 75.8322 57.6439C75.4913 57.9848 75.0291 58.1764 74.547 58.1766H61.82C60.8578 58.1879 59.9029 58.0082 59.0107 57.6477C58.1184 57.2873 57.3066 56.7534 56.6222 56.077C55.9378 55.4006 55.3944 54.595 55.0235 53.7071C54.6527 52.8191 54.4617 51.8664 54.4617 50.9041C54.4617 49.9419 54.6527 48.9891 55.0235 48.1012C55.3944 47.2133 55.9378 46.4077 56.6222 45.7313C57.3066 45.0549 58.1184 44.521 59.0107 44.1606C59.9029 43.8001 60.8578 43.6204 61.82 43.6316H74.547C75.0291 43.6319 75.4913 43.8235 75.8322 44.1644C76.1731 44.5053 76.3647 44.9676 76.365 45.4496V56.3586Z" fill="#FFB352"/>
<path d="M61.8201 47.2677C61.1009 47.2677 60.398 47.4809 59.8 47.8805C59.2021 48.28 58.7361 48.8479 58.4609 49.5123C58.1857 50.1767 58.1137 50.9077 58.2539 51.613C58.3942 52.3184 58.7405 52.9662 59.249 53.4747C59.7575 53.9832 60.4054 54.3295 61.1107 54.4698C61.816 54.6101 62.5471 54.5381 63.2115 54.2629C63.8759 53.9877 64.4438 53.5217 64.8433 52.9237C65.2428 52.3258 65.4561 51.6228 65.4561 50.9037C65.4548 49.9398 65.0713 49.0157 64.3897 48.3341C63.7081 47.6525 62.784 47.269 61.8201 47.2677Z" fill="#FFB352"/>
</svg>
