<svg width="67" height="80" viewBox="0 0 67 80" fill="none" xmlns="http://www.w3.org/2000/svg">
<path d="M51.9795 54.6664H41.3125V47.1664C43.7415 45.764 45.7592 43.7478 47.1633 41.3197C48.5674 38.8917 49.3085 36.1372 49.3125 33.3324V26.6664H50.6455V23.9994H46.8095C45.911 23.9983 45.039 23.6954 44.3333 23.1392C43.6277 22.583 43.1294 21.8058 42.9185 20.9324L39.9295 10.3064C39.8509 10.0269 39.6832 9.78058 39.4519 9.60498C39.2206 9.42938 38.9383 9.33406 38.6479 9.3335C38.3575 9.33293 38.0748 9.42715 37.8428 9.60185C37.6108 9.77654 37.4422 10.0222 37.3625 10.3014L34.6155 19.9594C34.3272 21.1129 33.6618 22.1369 32.7249 22.8689C31.788 23.6009 30.6334 23.9988 29.4445 23.9994H15.9795V26.6664H17.3125V33.3334C17.3164 36.1382 18.0576 38.8927 19.4617 41.3207C20.8658 43.7488 22.8835 45.765 25.3125 47.1674V55.9994C25.3125 56.1746 25.347 56.348 25.4141 56.5098C25.4812 56.6717 25.5795 56.8186 25.7035 56.9424L32.3705 63.6094C32.6205 63.8594 32.9595 63.9998 33.313 63.9998C33.6665 63.9998 34.0055 63.8594 34.2555 63.6094L40.5315 57.3334H51.9795C53.747 57.3356 55.4416 58.0386 56.6914 59.2885C57.9413 60.5383 58.6444 62.2329 58.6465 64.0004V77.3334H7.98048V76.0004H5.31348V78.6674C5.31348 79.021 5.45392 79.36 5.7039 79.61C5.95389 79.86 6.29294 80.0004 6.64648 80.0004H59.9785C60.332 80.0004 60.6711 79.86 60.9211 79.61C61.171 79.36 61.3115 79.021 61.3115 78.6674V63.9994C61.3086 61.5252 60.3245 59.1532 58.575 57.4036C56.8256 55.654 54.4537 54.6696 51.9795 54.6664ZM38.6465 55.4474L33.3135 60.7804L27.9805 55.4474V48.3994C31.427 49.6436 35.2 49.6436 38.6465 48.3994V55.4474ZM33.3135 46.6664C31.5625 46.6666 29.8286 46.3218 28.2109 45.6518C26.5931 44.9818 25.1232 43.9997 23.885 42.7616C22.6468 41.5235 21.6646 40.0537 20.9945 38.436C20.3244 36.8183 19.9795 35.0844 19.9795 33.3334V26.6664H29.4455C31.2232 26.6707 32.9514 26.081 34.3557 24.9909C35.76 23.9008 36.7598 22.3727 37.1965 20.6494L38.6435 15.5624L40.3435 21.6174C40.6969 23.0311 41.5048 24.2895 42.643 25.1994C43.7812 26.1092 45.1867 26.6201 46.6435 26.6534V33.3334C46.6435 36.8692 45.239 40.2602 42.739 42.7606C40.2391 45.261 36.8483 46.6659 33.3125 46.6664H33.3135Z" fill="#FFB352"/>
<path d="M18.6465 54.6664H14.6465V57.3334H18.6465C20.4004 57.3549 22.0752 58.0667 23.3079 59.3146C24.5406 60.5625 25.2318 62.2459 25.2318 63.9999C25.2318 65.754 24.5406 67.4374 23.3079 68.6853C22.0752 69.9331 20.4004 70.645 18.6465 70.6664H11.9805C10.9196 70.6664 9.9022 70.245 9.15205 69.4949C8.40191 68.7447 7.98048 67.7273 7.98048 66.6664H5.31348C5.31559 68.434 6.01869 70.1285 7.26854 71.3784C8.51839 72.6282 10.2129 73.3313 11.9805 73.3334H18.6475C21.1227 73.3334 23.4966 72.3501 25.2469 70.5999C26.9972 68.8496 27.9805 66.4757 27.9805 64.0004C27.9805 61.5252 26.9972 59.1513 25.2469 57.401C23.4966 55.6507 21.1227 54.6674 18.6475 54.6674L18.6465 54.6664Z" fill="#FFB352"/>
<path d="M63.5156 49.0444C62.5693 48.1999 61.4607 47.5571 60.2576 47.1554V47.1504C60.8475 46.3593 61.2052 45.4195 61.2907 44.4364C61.3762 43.4533 61.186 42.4658 60.7415 41.5847C60.2971 40.7037 59.6159 39.9639 58.7744 39.4484C57.9329 38.9329 56.9644 38.6621 55.9776 38.6664V23.2664C56.0643 17.361 53.8704 11.6495 49.8525 7.32069C45.8346 2.9919 40.3021 0.37923 34.4066 0.0264372C31.4334 -0.117284 28.4611 0.326019 25.6593 1.33103C22.8575 2.33605 20.2811 3.8831 18.0771 5.88384C15.8732 7.88458 14.085 10.2998 12.8145 12.9917C11.544 15.6835 10.8162 18.5993 10.6726 21.5724C10.6552 21.9371 10.6466 22.3018 10.6466 22.6664V38.6664C9.65976 38.6621 8.69128 38.9329 7.84979 39.4484C7.0083 39.9639 6.3271 40.7037 5.88263 41.5847C5.43815 42.4658 5.24799 43.4533 5.33347 44.4364C5.41896 45.4195 5.7767 46.3593 6.36658 47.1504C4.26809 47.8539 2.4879 49.2802 1.34378 51.1748C0.199656 53.0694 -0.233935 55.309 0.12041 57.4937C0.474755 59.6784 1.59397 61.6661 3.27827 63.1019C4.96257 64.5378 7.10232 65.3283 9.31558 65.3324H17.3156V62.6664H9.31558C7.56165 62.645 5.88685 61.9331 4.65417 60.6853C3.42148 59.4374 2.73023 57.754 2.73023 55.9999C2.73023 54.2459 3.42148 52.5625 4.65417 51.3146C5.88685 50.0667 7.56165 49.3549 9.31558 49.3334H17.3156V46.6664H10.6466C9.94832 46.6529 9.28322 46.366 8.79419 45.8674C8.30516 45.3689 8.03121 44.6983 8.03121 43.9999C8.03121 43.3015 8.30516 42.631 8.79419 42.1324C9.28322 41.6338 9.94832 41.347 10.6466 41.3334H11.9796C12.155 41.3338 12.3289 41.2996 12.4911 41.2326C12.6533 41.1657 12.8007 41.0674 12.9248 40.9434C13.0489 40.8193 13.1473 40.672 13.2144 40.5099C13.2815 40.3477 13.3158 40.1739 13.3156 39.9984V22.6664C13.3156 17.3621 15.4227 12.275 19.1734 8.5243C22.9242 4.77357 28.0112 2.66644 33.3156 2.66644C33.6389 2.66644 33.9622 2.6741 34.2856 2.68944C39.4965 3.01149 44.3826 5.33041 47.9272 9.16366C51.4717 12.9969 53.4017 18.0493 53.3156 23.2694V39.9984C53.3156 40.352 53.456 40.691 53.706 40.941C53.956 41.191 54.295 41.3314 54.6486 41.3314H55.9816C56.3361 41.3246 56.6884 41.3885 57.0179 41.5194C57.3475 41.6503 57.6476 41.8456 57.9007 42.0939C58.1539 42.3422 58.355 42.6385 58.4922 42.9654C58.6295 43.2923 58.7002 43.6434 58.7002 43.9979C58.7002 44.3525 58.6295 44.7035 58.4922 45.0305C58.355 45.3574 58.1539 45.6537 57.9007 45.902C57.6476 46.1502 57.3475 46.3456 57.0179 46.4765C56.6884 46.6074 56.3361 46.6713 55.9816 46.6644H49.3156V49.3314H57.3156C58.6022 49.3318 59.8613 49.7044 60.9409 50.4044C62.0205 51.1044 62.8745 52.1019 63.3998 53.2764C63.9251 54.451 64.0994 55.7525 63.9015 57.0238C63.7036 58.2952 63.142 59.4821 62.2846 60.4414L64.2716 62.2204C65.9184 60.3728 66.7638 57.9468 66.6221 55.4759C66.4803 53.005 65.3629 50.6916 63.5156 49.0444Z" fill="#FFB352"/>
</svg>
