<svg width="80" height="80" viewBox="0 0 80 80" fill="none" xmlns="http://www.w3.org/2000/svg">
<g clip-path="url(#clip0_32_125)">
<path d="M46.667 29.698L76.034 35.531C77.1581 35.7541 78.1691 36.3622 78.8931 37.2506C79.617 38.139 80.0084 39.252 80 40.398V74.398C80.0009 75.0549 79.8722 75.7055 79.6213 76.3125C79.3703 76.9195 79.0021 77.4711 78.5376 77.9356C78.0731 78.4001 77.5216 78.7683 76.9145 79.0193C76.3075 79.2702 75.6569 79.3989 75 79.398H45C45.2195 79.4003 45.4373 79.3587 45.6406 79.2757C45.8439 79.1928 46.0286 79.0701 46.1838 78.9148C46.3391 78.7596 46.4618 78.5749 46.5447 78.3716C46.6277 78.1683 46.6693 77.9505 46.667 77.731V76.065H75C75.4417 76.0637 75.865 75.8876 76.1773 75.5753C76.4896 75.263 76.6657 74.8397 76.667 74.398V40.398C76.6671 40.0189 76.5386 39.6509 76.3025 39.3543C76.0663 39.0576 75.7365 38.8499 75.367 38.765L46.667 33.098V29.698Z" fill="#FFB352"/>
<path d="M65 46.064C65.435 46.0746 65.8485 46.2549 66.1523 46.5663C66.4561 46.8776 66.6262 47.2954 66.6262 47.7305C66.6262 48.1655 66.4561 48.5833 66.1523 48.8947C65.8485 49.2061 65.435 49.3863 65 49.397H58.334C58.1118 49.4024 57.8906 49.3633 57.6837 49.282C57.4767 49.2007 57.2881 49.0789 57.129 48.9236C56.9699 48.7683 56.8434 48.5827 56.757 48.3778C56.6707 48.1729 56.6262 47.9528 56.6262 47.7305C56.6262 47.5081 56.6707 47.288 56.757 47.0831C56.8434 46.8782 56.9699 46.6927 57.129 46.5374C57.2881 46.3821 57.4767 46.2602 57.6837 46.1789C57.8906 46.0976 58.1118 46.0585 58.334 46.064H65Z" fill="#FFB352"/>
<path d="M65 56.064C65.435 56.0746 65.8485 56.2549 66.1523 56.5663C66.4561 56.8776 66.6262 57.2954 66.6262 57.7305C66.6262 58.1655 66.4561 58.5833 66.1523 58.8947C65.8485 59.2061 65.435 59.3863 65 59.397H58.334C58.1118 59.4024 57.8906 59.3633 57.6837 59.282C57.4767 59.2007 57.2881 59.0789 57.129 58.9236C56.9699 58.7683 56.8434 58.5827 56.757 58.3778C56.6707 58.1729 56.6262 57.9528 56.6262 57.7305C56.6262 57.5081 56.6707 57.288 56.757 57.0831C56.8434 56.8782 56.9699 56.6927 57.129 56.5374C57.2881 56.3821 57.4767 56.2602 57.6837 56.1789C57.8906 56.0976 58.1118 56.0585 58.334 56.064H65Z" fill="#FFB352"/>
<path d="M65 66.064C65.435 66.0746 65.8485 66.2549 66.1523 66.5663C66.4561 66.8776 66.6262 67.2954 66.6262 67.7305C66.6262 68.1655 66.4561 68.5833 66.1523 68.8947C65.8485 69.2061 65.435 69.3863 65 69.397H58.334C58.1118 69.4024 57.8906 69.3633 57.6837 69.282C57.4767 69.2007 57.2881 69.0789 57.129 68.9236C56.9699 68.7683 56.8434 68.5827 56.757 68.3778C56.6707 68.1729 56.6262 67.9528 56.6262 67.7305C56.6262 67.5081 56.6707 67.288 56.757 67.0831C56.8434 66.8782 56.9699 66.6927 57.129 66.5374C57.2881 66.3821 57.4767 66.2602 57.6837 66.1789C57.8906 66.0976 58.1118 66.0585 58.334 66.064H65Z" fill="#FFB352"/>
<path d="M46.666 77.731C46.6554 78.1659 46.4751 78.5794 46.1637 78.8832C45.8524 79.1871 45.4346 79.3571 44.9995 79.3571C44.5645 79.3571 44.1467 79.1871 43.8353 78.8832C43.5239 78.5794 43.3437 78.1659 43.333 77.731V31.064C43.3371 30.8175 43.3925 30.5745 43.4959 30.3507C43.5992 30.1268 43.7481 29.927 43.933 29.764C44.1295 29.6125 44.3559 29.5045 44.5972 29.4471C44.8386 29.3897 45.0894 29.3842 45.333 29.431L46.666 29.698V77.731Z" fill="#FFB352"/>
<path d="M43.334 76.064V77.731C43.3317 77.9505 43.3733 78.1683 43.4563 78.3716C43.5392 78.5749 43.6619 78.7595 43.8172 78.9148C43.9724 79.07 44.1571 79.1927 44.3604 79.2757C44.5637 79.3587 44.7814 79.4002 45.001 79.398H31.667C31.8865 79.4002 32.1043 79.3587 32.3076 79.2757C32.5109 79.1927 32.6956 79.07 32.8508 78.9148C33.0061 78.7595 33.1288 78.5749 33.2117 78.3716C33.2947 78.1683 33.3363 77.9505 33.334 77.731V76.064H43.334Z" fill="#FFB352"/>
<path d="M35.0002 16.064C35.2225 16.0585 35.4436 16.0976 35.6505 16.1789C35.8575 16.2602 36.0461 16.3821 36.2052 16.5374C36.3644 16.6927 36.4908 16.8782 36.5772 17.0831C36.6635 17.288 36.708 17.5081 36.708 17.7305C36.708 17.9528 36.6635 18.1729 36.5772 18.3778C36.4908 18.5827 36.3644 18.7683 36.2052 18.9236C36.0461 19.0789 35.8575 19.2007 35.6505 19.282C35.4436 19.3633 35.2225 19.4024 35.0002 19.397H28.3342C27.8993 19.3863 27.4857 19.2061 27.1819 18.8947C26.8781 18.5833 26.708 18.1655 26.708 17.7305C26.708 17.2954 26.8781 16.8776 27.1819 16.5663C27.4857 16.2549 27.8993 16.0746 28.3342 16.064H35.0002Z" fill="#FFB352"/>
<path d="M36.667 27.731C36.6693 27.9505 36.6277 28.1683 36.5447 28.3716C36.4618 28.5749 36.3391 28.7595 36.1838 28.9148C36.0286 29.07 35.8439 29.1928 35.6406 29.2757C35.4373 29.3587 35.2195 29.4003 35 29.398H28.334C27.8919 29.398 27.4679 29.2224 27.1552 28.9097C26.8426 28.5971 26.667 28.1731 26.667 27.731C26.667 27.2889 26.8426 26.8649 27.1552 26.5522C27.4679 26.2396 27.8919 26.064 28.334 26.064H35.001C35.2205 26.0618 35.4381 26.1035 35.6413 26.1865C35.8445 26.2696 36.029 26.3923 36.1842 26.5475C36.3393 26.7028 36.4619 26.8874 36.5448 27.0906C36.6277 27.2938 36.6693 27.5115 36.667 27.731Z" fill="#FFB352"/>
<path d="M35 36.064C35.2223 36.0585 35.4435 36.0976 35.6504 36.1789C35.8574 36.2602 36.046 36.3821 36.2051 36.5374C36.3642 36.6927 36.4907 36.8782 36.577 37.0831C36.6634 37.288 36.7079 37.5081 36.7079 37.7305C36.7079 37.9528 36.6634 38.1729 36.577 38.3778C36.4907 38.5827 36.3642 38.7683 36.2051 38.9236C36.046 39.0789 35.8574 39.2007 35.6504 39.282C35.4435 39.3633 35.2223 39.4024 35 39.397H28.334C28.1118 39.4024 27.8906 39.3633 27.6837 39.282C27.4767 39.2007 27.2881 39.0789 27.129 38.9236C26.9699 38.7683 26.8434 38.5827 26.757 38.3778C26.6707 38.1729 26.6262 37.9528 26.6262 37.7305C26.6262 37.5081 26.6707 37.288 26.757 37.0831C26.8434 36.8782 26.9699 36.6927 27.129 36.5374C27.2881 36.3821 27.4767 36.2602 27.6837 36.1789C27.8906 36.0976 28.1118 36.0585 28.334 36.064H35Z" fill="#FFB352"/>
<path d="M35 46.064C35.2223 46.0585 35.4435 46.0976 35.6504 46.1789C35.8574 46.2602 36.046 46.3821 36.2051 46.5374C36.3642 46.6927 36.4907 46.8782 36.577 47.0831C36.6634 47.288 36.7079 47.5081 36.7079 47.7305C36.7079 47.9528 36.6634 48.1729 36.577 48.3778C36.4907 48.5827 36.3642 48.7683 36.2051 48.9236C36.046 49.0789 35.8574 49.2007 35.6504 49.282C35.4435 49.3633 35.2223 49.4024 35 49.397H28.334C28.1118 49.4024 27.8906 49.3633 27.6837 49.282C27.4767 49.2007 27.2881 49.0789 27.129 48.9236C26.9699 48.7683 26.8434 48.5827 26.757 48.3778C26.6707 48.1729 26.6262 47.9528 26.6262 47.7305C26.6262 47.5081 26.6707 47.288 26.757 47.0831C26.8434 46.8782 26.9699 46.6927 27.129 46.5374C27.2881 46.3821 27.4767 46.2602 27.6837 46.1789C27.8906 46.0976 28.1118 46.0585 28.334 46.064H35Z" fill="#FFB352"/>
<path d="M20.0001 47.731C20.0023 47.9505 19.9608 48.1683 19.8778 48.3716C19.7948 48.5748 19.6721 48.7595 19.5169 48.9148C19.3616 49.07 19.1769 49.1927 18.9737 49.2757C18.7704 49.3587 18.5526 49.4002 18.3331 49.398H11.6671C11.4448 49.4034 11.2236 49.3643 11.0167 49.283C10.8097 49.2017 10.6211 49.0798 10.462 48.9245C10.3029 48.7693 10.1764 48.5837 10.0901 48.3788C10.0037 48.1739 9.95923 47.9538 9.95923 47.7315C9.95923 47.5091 10.0037 47.289 10.0901 47.0841C10.1764 46.8792 10.3029 46.6936 10.462 46.5384C10.6211 46.3831 10.8097 46.2612 11.0167 46.1799C11.2236 46.0986 11.4448 46.0595 11.6671 46.065H18.3341C18.5534 46.0628 18.771 46.1044 18.9741 46.1874C19.1772 46.2704 19.3617 46.393 19.5169 46.5481C19.672 46.7033 19.7946 46.8878 19.8776 47.0909C19.9606 47.294 20.0022 47.5116 20.0001 47.731Z" fill="#FFB352"/>
<path d="M18.3331 16.064C18.768 16.0746 19.1815 16.2549 19.4853 16.5663C19.7892 16.8776 19.9592 17.2954 19.9592 17.7305C19.9592 18.1655 19.7892 18.5833 19.4853 18.8947C19.1815 19.2061 18.768 19.3863 18.3331 19.397H11.6671C11.4448 19.4024 11.2236 19.3633 11.0167 19.282C10.8097 19.2007 10.6211 19.0789 10.462 18.9236C10.3029 18.7683 10.1764 18.5827 10.0901 18.3778C10.0037 18.1729 9.95923 17.9528 9.95923 17.7305C9.95923 17.5081 10.0037 17.288 10.0901 17.0831C10.1764 16.8782 10.3029 16.6927 10.462 16.5374C10.6211 16.3821 10.8097 16.2602 11.0167 16.1789C11.2236 16.0976 11.4448 16.0585 11.6671 16.064H18.3331Z" fill="#FFB352"/>
<path d="M18.3331 26.064C18.5553 26.0585 18.7765 26.0976 18.9834 26.1789C19.1904 26.2602 19.379 26.3821 19.5381 26.5374C19.6972 26.6927 19.8237 26.8782 19.9101 27.0831C19.9964 27.288 20.0409 27.5081 20.0409 27.7305C20.0409 27.9528 19.9964 28.1729 19.9101 28.3778C19.8237 28.5827 19.6972 28.7683 19.5381 28.9236C19.379 29.0789 19.1904 29.2007 18.9834 29.282C18.7765 29.3633 18.5553 29.4024 18.3331 29.397H11.6671C11.4448 29.4024 11.2236 29.3633 11.0167 29.282C10.8097 29.2007 10.6211 29.0789 10.462 28.9236C10.3029 28.7683 10.1764 28.5827 10.0901 28.3778C10.0037 28.1729 9.95923 27.9528 9.95923 27.7305C9.95923 27.5081 10.0037 27.288 10.0901 27.0831C10.1764 26.8782 10.3029 26.6927 10.462 26.5374C10.6211 26.3821 10.8097 26.2602 11.0167 26.1789C11.2236 26.0976 11.4448 26.0585 11.6671 26.064H18.3331Z" fill="#FFB352"/>
<path d="M18.3331 36.064C18.5553 36.0585 18.7765 36.0976 18.9834 36.1789C19.1904 36.2602 19.379 36.3821 19.5381 36.5374C19.6972 36.6927 19.8237 36.8782 19.9101 37.0831C19.9964 37.288 20.0409 37.5081 20.0409 37.7305C20.0409 37.9528 19.9964 38.1729 19.9101 38.3778C19.8237 38.5827 19.6972 38.7683 19.5381 38.9236C19.379 39.0789 19.1904 39.2007 18.9834 39.282C18.7765 39.3633 18.5553 39.4024 18.3331 39.397H11.6671C11.4448 39.4024 11.2236 39.3633 11.0167 39.282C10.8097 39.2007 10.6211 39.0789 10.462 38.9236C10.3029 38.7683 10.1764 38.5827 10.0901 38.3778C10.0037 38.1729 9.95923 37.9528 9.95923 37.7305C9.95923 37.5081 10.0037 37.288 10.0901 37.0831C10.1764 36.8782 10.3029 36.6927 10.462 36.5374C10.6211 36.3821 10.8097 36.2602 11.0167 36.1789C11.2236 36.0976 11.4448 36.0585 11.6671 36.064H18.3331Z" fill="#FFB352"/>
<path d="M30 61.064C29.9987 60.6223 29.8226 60.199 29.5103 59.8867C29.198 59.5743 28.7747 59.3983 28.333 59.397H18.333C18.1135 59.3947 17.8957 59.4363 17.6924 59.5192C17.4891 59.6022 17.3044 59.7249 17.1492 59.8802C16.9939 60.0354 16.8712 60.2201 16.7883 60.4234C16.7053 60.6266 16.6637 60.8444 16.666 61.064V76.064H13.333V61.064C13.3321 60.4071 13.4608 59.7565 13.7117 59.1495C13.9627 58.5424 14.3309 57.9909 14.7954 57.5264C15.2599 57.0619 15.8115 56.6936 16.4185 56.4427C17.0255 56.1917 17.6761 56.063 18.333 56.064H28.333C28.9899 56.063 29.6405 56.1917 30.2475 56.4427C30.8546 56.6936 31.4061 57.0619 31.8706 57.5264C32.3351 57.9909 32.7033 58.5424 32.9543 59.1495C33.2052 59.7565 33.3339 60.4071 33.333 61.064V76.064H30V61.064Z" fill="#FFB352"/>
<path d="M16.6661 76.064H33.3331V77.731C33.3354 77.9505 33.2938 78.1683 33.2108 78.3716C33.1279 78.5749 33.0052 78.7595 32.8499 78.9148C32.6947 79.07 32.51 79.1927 32.3067 79.2757C32.1034 79.3587 31.8856 79.4002 31.6661 79.398H15.0001C14.7806 79.4002 14.5628 79.3587 14.3595 79.2757C14.1562 79.1927 13.9715 79.07 13.8163 78.9148C13.661 78.7595 13.5383 78.5749 13.4554 78.3716C13.3724 78.1683 13.3308 77.9505 13.3331 77.731V76.064H16.6661Z" fill="#FFB352"/>
<path d="M5.83308 0.0639912L42.4671 5.63099C43.6403 5.81746 44.7083 6.41702 45.4784 7.32155C46.2486 8.22608 46.6701 9.37603 46.6671 10.564V29.698L45.3341 29.431C45.0905 29.3842 44.8397 29.3897 44.5983 29.4471C44.357 29.5045 44.1306 29.6125 43.9341 29.764C43.7491 29.927 43.6003 30.1268 43.4969 30.3507C43.3936 30.5745 43.3382 30.8175 43.3341 31.064V10.564C43.3356 10.1654 43.1957 9.77926 42.9394 9.47406C42.6831 9.16886 42.3269 8.9644 41.9341 8.89699L5.30008 3.36399C5.20257 3.33661 5.10122 3.32546 5.00008 3.33099C4.60691 3.32619 4.22621 3.46891 3.93308 3.73099C3.74312 3.88248 3.59031 4.0754 3.48632 4.29499C3.38233 4.51458 3.32992 4.75504 3.33308 4.99799V74.398C3.33467 74.8395 3.51084 75.2625 3.82315 75.5746C4.13545 75.8868 4.55855 76.0627 5.00008 76.064H13.3331V77.731C13.3308 77.9505 13.3724 78.1683 13.4553 78.3716C13.5383 78.5749 13.661 78.7596 13.8163 78.9148C13.9715 79.0701 14.1562 79.1928 14.3595 79.2757C14.5627 79.3587 14.7805 79.4003 15.0001 79.398H5.00008C4.34321 79.3989 3.69262 79.2702 3.08558 79.0193C2.47853 78.7683 1.92697 78.4001 1.46249 77.9356C0.998018 77.4711 0.629756 76.9195 0.378809 76.3125C0.127862 75.7055 -0.00083794 75.0549 8.36117e-05 74.398V4.99799C-0.00414546 4.27343 0.152104 3.55693 0.457615 2.89992C0.763126 2.2429 1.21032 1.66169 1.76708 1.19799C2.32113 0.723919 2.97217 0.376768 3.67455 0.180875C4.37693 -0.0150177 5.11366 -0.0549113 5.83308 0.0639912Z" fill="#FFB352"/>
</g>
<defs>
<clipPath id="clip0_32_125">
<rect width="80" height="79.398" fill="white"/>
</clipPath>
</defs>
</svg>
